<svg width="18" height="13" viewBox="0 0 18 13" fill="none" xmlns="http://www.w3.org/2000/svg">
<g clip-path="url(#clip0_29_8735)">
<mask id="mask0_29_8735" style="mask-type:alpha" maskUnits="userSpaceOnUse" x="0" y="0" width="18" height="13">
<path d="M15.6 0.788574H2.00002C1.11637 0.788574 0.400024 1.50492 0.400024 2.38857V11.1886C0.400024 12.0722 1.11637 12.7886 2.00002 12.7886H15.6C16.4837 12.7886 17.2 12.0722 17.2 11.1886V2.38857C17.2 1.50492 16.4837 0.788574 15.6 0.788574Z" fill="white"/>
</mask>
<g mask="url(#mask0_29_8735)">
<path d="M15.6 0.788574H2.00002C1.11637 0.788574 0.400024 1.50492 0.400024 2.38857V11.1886C0.400024 12.0722 1.11637 12.7886 2.00002 12.7886H15.6C16.4837 12.7886 17.2 12.0722 17.2 11.1886V2.38857C17.2 1.50492 16.4837 0.788574 15.6 0.788574Z" fill="#E02600"/>
<path fill-rule="evenodd" clip-rule="evenodd" d="M4.7984 6.57248L3.6224 7.19088L3.8464 5.88128L2.896 4.95328L4.2104 4.76368L4.7984 3.57168L5.3856 4.76368L6.7 4.95328L5.748 5.88128L5.9736 7.19008L4.7984 6.57248ZM7.6 3.18848H8.4V3.98848H7.6V3.18848ZM8.4 4.78848H9.2V5.58848H8.4V4.78848ZM8.4 6.38848H9.2V7.18848H8.4V6.38848ZM7.6 7.98848H8.4V8.78848H7.6V7.98848Z" fill="#FFE000"/>
<path d="M15.6 1.18848H2.00005C1.33731 1.18848 0.800049 1.72573 0.800049 2.38848V11.1885C0.800049 11.8512 1.33731 12.3885 2.00005 12.3885H15.6C16.2628 12.3885 16.8 11.8512 16.8 11.1885V2.38848C16.8 1.72573 16.2628 1.18848 15.6 1.18848Z" stroke="black" stroke-opacity="0.1"/>
</g>
</g>
<defs>
<clipPath id="clip0_29_8735">
<rect width="16.8" height="12" fill="white" transform="translate(0.400024 0.788574)"/>
</clipPath>
</defs>
</svg>
