<svg width="25" height="25" viewBox="0 0 25 25" fill="none" xmlns="http://www.w3.org/2000/svg">
<path fill-rule="evenodd" clip-rule="evenodd" d="M12.6 0.788574C5.97262 0.788574 0.600037 6.16116 0.600037 12.7886C0.600037 19.416 5.97262 24.7886 12.6 24.7886C19.2275 24.7886 24.6 19.416 24.6 12.7886C24.6 6.16116 19.2275 0.788574 12.6 0.788574ZM8.05261 5.98857H17.5475C18.3482 5.98857 19 6.63257 19 7.43057V19.9886L17.4766 18.6586L16.6192 17.8746L15.7123 17.0416L16.0878 18.3366H8.05261C7.25192 18.3366 6.60004 17.6926 6.60004 16.8946V7.43057C6.60004 6.63257 7.25192 5.98857 8.05261 5.98857Z" fill="white" fill-opacity="0.3"/>
<path fill-rule="evenodd" clip-rule="evenodd" d="M14.8124 15.1305C14.8124 15.1305 14.5573 14.8295 14.3447 14.5635C15.2729 14.3045 15.6272 13.7305 15.6272 13.7305C15.3367 13.9195 15.0604 14.0525 14.8124 14.1435C14.4581 14.2905 14.118 14.3885 13.7849 14.4445C13.1047 14.5705 12.4812 14.5355 11.9497 14.4375C11.5458 14.3605 11.1986 14.2485 10.9081 14.1365C10.7452 14.0735 10.568 13.9965 10.3909 13.8985C10.3802 13.8915 10.3696 13.8863 10.359 13.881C10.3484 13.8758 10.3377 13.8705 10.3271 13.8635C10.3129 13.8565 10.3058 13.8495 10.2988 13.8425C10.1712 13.7725 10.1004 13.7235 10.1004 13.7235C10.1004 13.7235 10.4405 14.2835 11.3404 14.5495C11.1278 14.8155 10.8656 15.1305 10.8656 15.1305C9.29967 15.0815 8.70447 14.0665 8.70447 14.0665C8.70447 11.8125 9.72481 9.98555 9.72481 9.98555C10.7452 9.22955 11.7159 9.25055 11.7159 9.25055L11.7868 9.33455C10.5113 9.69855 9.92321 10.2515 9.92321 10.2515C9.92321 10.2515 10.0791 10.1675 10.3413 10.0485C11.0994 9.71955 11.7017 9.62855 11.9497 9.60755L11.9656 9.60489C12.0014 9.59888 12.0331 9.59355 12.0702 9.59355C12.5024 9.53755 12.9913 9.52355 13.5015 9.57955C14.1746 9.65655 14.8974 9.85255 15.6343 10.2515C15.6343 10.2515 15.0745 9.72655 13.87 9.36255L13.9692 9.25055C13.9692 9.25055 14.9399 9.22955 15.9602 9.98555C15.9602 9.98555 16.9806 11.8125 16.9806 14.0665C16.9806 14.0665 16.3783 15.0815 14.8124 15.1305ZM11.7171 11.9885C11.3164 11.9885 11 12.3489 11 12.7885C11 13.2282 11.3234 13.5885 11.7171 13.5885C12.1178 13.5885 12.4341 13.2282 12.4341 12.7885C12.4411 12.3489 12.1178 11.9885 11.7171 11.9885ZM13.5659 12.7885C13.5659 12.3489 13.8823 11.9885 14.283 11.9885C14.6837 11.9885 15 12.3489 15 12.7885C15 13.2282 14.6837 13.5885 14.283 13.5885C13.8893 13.5885 13.5659 13.2282 13.5659 12.7885Z" fill="white" fill-opacity="0.3"/>
</svg>
