<svg width="25" height="25" viewBox="0 0 25 25" fill="none" xmlns="http://www.w3.org/2000/svg">
<path fill-rule="evenodd" clip-rule="evenodd" d="M9.21094 4.28857C8.24444 4.28857 7.46094 5.07208 7.46094 6.03857C7.46094 7.00507 8.24444 7.78857 9.21094 7.78857C9.44159 7.78857 9.66181 7.74395 9.86346 7.66287C9.88041 7.65273 9.89815 7.64349 9.91664 7.63523C9.93597 7.62659 9.95557 7.61928 9.97532 7.61326C10.5588 7.3295 10.9609 6.731 10.9609 6.03857C10.9609 5.07208 10.1774 4.28857 9.21094 4.28857ZM9.21094 8.78857C9.43126 8.78857 9.64554 8.76266 9.85088 8.71372L10.6575 10.519C9.93493 11.0146 9.46094 11.8462 9.46094 12.7886C9.46094 13.3094 9.60572 13.7964 9.85722 14.2115L7.1508 16.6189C6.68455 16.2552 6.09805 16.0386 5.46094 16.0386C3.94215 16.0386 2.71094 17.2698 2.71094 18.7886C2.71094 20.3074 3.94215 21.5386 5.46094 21.5386C6.97972 21.5386 8.21094 20.3074 8.21094 18.7886C8.21094 18.2681 8.06633 17.7813 7.81509 17.3664L10.5217 14.9588C10.9879 15.3221 11.5741 15.5386 12.2109 15.5386C12.9126 15.5386 13.553 15.2758 14.0388 14.8432L16.5192 16.7723C16.3222 17.1513 16.2109 17.5819 16.2109 18.0386C16.2109 19.5574 17.4422 20.7886 18.9609 20.7886C20.4797 20.7886 21.7109 19.5574 21.7109 18.0386C21.7109 16.5198 20.4797 15.2886 18.9609 15.2886C18.2595 15.2886 17.6195 15.5512 17.1337 15.9834L14.6531 14.0541C14.8498 13.6753 14.9609 13.2449 14.9609 12.7886C14.9609 12.6593 14.952 12.5321 14.9348 12.4075L16.5531 11.8681C17.0218 12.7151 17.9244 13.2886 18.9609 13.2886C20.4797 13.2886 21.7109 12.0574 21.7109 10.5386C21.7109 9.01979 20.4797 7.78857 18.9609 7.78857C17.4422 7.78857 16.2109 9.01979 16.2109 10.5386C16.2109 10.6678 16.2198 10.7949 16.2371 10.9193L14.6186 11.4588C14.1499 10.612 13.2474 10.0386 12.2109 10.0386C11.9908 10.0386 11.7767 10.0644 11.5715 10.1133L10.7648 8.30782C11.4871 7.81225 11.9609 6.98074 11.9609 6.03857C11.9609 4.51979 10.7297 3.28857 9.21094 3.28857C7.69215 3.28857 6.46094 4.51979 6.46094 6.03857C6.46094 7.55736 7.69215 8.78857 9.21094 8.78857ZM10.9487 14.0007C11.2672 14.3322 11.715 14.5386 12.2109 14.5386C12.7503 14.5386 13.2326 14.2946 13.5536 13.911C13.5641 13.8934 13.5758 13.8763 13.5887 13.8597C13.6017 13.843 13.6155 13.8273 13.6301 13.8128C13.8382 13.5248 13.9609 13.171 13.9609 12.7886C13.9609 11.8221 13.1774 11.0386 12.2109 11.0386C11.9811 11.0386 11.7616 11.0829 11.5606 11.1634C11.5431 11.1739 11.5249 11.1835 11.5058 11.192C11.4859 11.2009 11.4656 11.2084 11.4452 11.2146C10.8625 11.4986 10.4609 12.0967 10.4609 12.7886C10.4609 13.2103 10.6101 13.5972 10.8586 13.8994C10.8755 13.9139 10.8917 13.9298 10.907 13.9469C10.9223 13.9641 10.9362 13.9821 10.9487 14.0007ZM6.72703 17.5805C6.73883 17.5977 6.75184 17.6143 6.76606 17.6303C6.78015 17.6461 6.79502 17.6609 6.81056 17.6745C7.06067 17.9771 7.21094 18.3653 7.21094 18.7886C7.21094 19.7551 6.42744 20.5386 5.46094 20.5386C4.49444 20.5386 3.71094 19.7551 3.71094 18.7886C3.71094 17.8221 4.49444 17.0386 5.46094 17.0386C5.95893 17.0386 6.40835 17.2466 6.72703 17.5805ZM17.2109 18.0386C17.2109 17.6577 17.3326 17.3053 17.5392 17.018C17.5552 17.0023 17.5702 16.9855 17.5843 16.9673C17.5983 16.9494 17.6108 16.9309 17.6219 16.9118C17.9429 16.5307 18.4237 16.2886 18.9609 16.2886C19.9274 16.2886 20.7109 17.0721 20.7109 18.0386C20.7109 19.0051 19.9274 19.7886 18.9609 19.7886C17.9944 19.7886 17.2109 19.0051 17.2109 18.0386ZM17.2109 10.5386C17.2109 9.57208 17.9944 8.78857 18.9609 8.78857C19.9274 8.78857 20.7109 9.57208 20.7109 10.5386C20.7109 11.5051 19.9274 12.2886 18.9609 12.2886C17.9944 12.2886 17.2109 11.5051 17.2109 10.5386Z" fill="white"/>
</svg>
