<svg width="1920" height="1626" viewBox="0 0 1920 1626" fill="none" xmlns="http://www.w3.org/2000/svg">
<path d="M2091.04 1212.76C2081.65 1195.04 1488.47 144.499 1348.34 144.499C1208.22 144.499 1144.31 279.129 1010.21 314.984C876.105 350.839 778.289 380.796 530.553 291.008C396.198 242.313 392.9 161.428 313.632 143.106C234.363 124.784 34.9333 188.249 -226.765 188.249C-488.464 188.249 -1069.41 33.4552 -1137 -146.762" stroke="#453FD6" stroke-opacity="0.3"/>
<path d="M2044.64 468.379C2032.48 458.006 1470.79 809.949 1289.32 809.949C1107.85 809.949 1025.1 888.771 851.426 909.762C677.754 930.754 551.079 948.293 230.251 895.725C56.2558 867.216 51.9843 819.861 -50.6718 809.134C-153.328 798.407 -294.882 904.416 -471.441 930.754C-579.872 946.929 -636.707 928.231 -782.472 930.754C-928.237 933.278 298.869 -321.447 69.4732 -354" stroke="#453FD6" stroke-opacity="0.3"/>
<path d="M2089.91 1194.6C2085.03 1185.7 1924.36 933.737 1757.02 675.346C1589.69 416.955 1408.81 162.647 1336.22 163.159C1195.28 163.671 1129.84 295.445 991.184 329.144C856.106 363.429 760.571 391.5 516.374 303.641C382.792 255.872 376.122 179.545 294.48 162.312C214.5 144.831 18.5489 206.292 -240.322 206.353C-499.193 206.415 -1036.04 24.7941 -1107.58 -151.822" stroke="#453FD6" stroke-opacity="0.3"/>
<path d="M2088.77 1176.45C2083.71 1167.51 1913.02 930.645 1745.33 678.713C1577.64 426.782 1399.22 180.802 1324.1 181.826C1182.33 182.85 1115.37 311.769 972.157 343.311C836.106 376.026 742.853 402.211 502.195 316.28C369.386 269.438 359.344 197.669 275.329 181.526C194.638 164.886 2.16408 224.343 -253.879 224.466C-509.922 224.589 -1002.67 16.1405 -1078.15 -156.874" stroke="#453FD6" stroke-opacity="0.3"/>
<path d="M2087.65 1158.29C2082.41 1149.32 1901.69 927.545 1733.65 682.073C1565.6 436.602 1389.64 198.95 1311.99 200.486C1169.41 202.022 1100.91 328.085 953.146 357.47C816.122 388.616 725.151 412.915 488.031 328.913C355.996 282.996 342.581 215.786 256.194 200.732C174.791 184.934 -14.2047 242.386 -267.42 242.571C-520.636 242.756 -969.282 7.47935 -1048.71 -161.933" stroke="#453FD6" stroke-opacity="0.3"/>
<path d="M2086.52 1140.13C2081.1 1131.13 1890.35 924.453 1721.95 685.441C1553.55 446.429 1380.04 217.106 1299.87 219.154C1156.47 221.202 1086.44 344.409 934.12 371.637C796.123 401.213 707.433 423.627 473.852 341.553C342.59 296.562 325.803 233.91 237.043 219.945C154.929 204.989 -30.5891 260.437 -280.977 260.684C-531.365 260.93 -935.913 -1.17398 -1019.29 -166.985" stroke="#453FD6" stroke-opacity="0.3"/>
<path d="M2085.38 1121.98C2079.78 1112.94 1879.01 921.361 1710.26 688.809C1541.51 456.257 1370.44 235.262 1287.74 237.822C1143.53 240.382 1071.97 360.733 915.093 385.805C776.124 413.811 689.716 434.339 459.673 354.193C329.183 310.128 309.025 252.035 217.891 239.159C135.067 225.044 -46.9737 278.489 -294.534 278.797C-542.094 279.104 -902.543 -9.82709 -989.869 -172.036" stroke="#453FD6" stroke-opacity="0.3"/>
<path d="M2084.25 1103.82C2078.46 1094.74 1867.67 918.261 1698.56 692.169C1529.46 466.077 1360.85 253.41 1275.62 256.482C1130.58 259.554 1057.5 377.049 896.067 399.964C756.124 426.4 671.998 445.043 445.493 366.825C315.777 323.687 292.246 270.152 198.74 258.365C115.204 245.092 -63.3583 296.532 -308.091 296.901C-552.823 297.271 -869.174 -18.4882 -960.446 -177.096" stroke="#453FD6" stroke-opacity="0.3"/>
<path d="M2083.11 1085.67C2077.14 1076.55 1856.32 915.17 1686.87 695.537C1517.41 475.904 1351.25 271.566 1263.5 275.15C1117.64 278.734 1043.02 393.373 877.04 414.132C736.125 438.998 654.28 455.755 431.314 379.465C302.371 337.253 275.468 288.276 179.589 277.579C95.3413 265.147 -79.7429 314.583 -321.648 315.014C-563.553 315.445 -835.805 -27.1416 -931.023 -182.148" stroke="#453FD6" stroke-opacity="0.3"/>
<path d="M2082 1067.52C2075.84 1058.36 1845 912.078 1675.19 698.905C1505.37 485.732 1341.67 289.722 1251.39 293.818C1104.72 297.914 1028.57 409.697 858.03 428.299C716.141 451.595 636.578 466.467 417.151 392.105C288.981 350.819 258.706 306.401 160.453 296.793C75.4948 285.202 -96.1116 332.635 -335.189 333.127C-574.266 333.62 -802.419 -35.7947 -901.584 -187.199" stroke="#453FD6" stroke-opacity="0.3"/>
<path d="M2080.86 1049.35C2074.53 1040.16 1833.65 908.978 1663.49 702.265C1493.33 495.552 1332.07 307.87 1239.27 312.478C1091.78 317.086 1014.1 426.013 839.003 442.458C696.142 464.185 618.86 477.17 402.971 404.738C275.574 364.377 241.927 324.517 141.302 315.999C55.6322 305.249 -112.496 350.678 -348.746 351.232C-584.996 351.786 -769.05 -44.4558 -872.161 -192.259" stroke="#453FD6" stroke-opacity="0.3"/>
<path d="M2079.73 1031.2C2073.21 1021.97 1822.31 905.887 1651.79 705.634C1481.28 505.381 1322.48 326.027 1227.14 331.147C1078.84 336.267 999.623 442.338 819.976 456.627C676.142 476.783 601.141 487.883 388.791 417.379C262.168 377.944 225.148 342.643 122.15 335.214C35.7691 325.306 -128.881 368.73 -362.303 369.346C-595.725 369.961 -735.681 -53.1081 -842.738 -197.31" stroke="#453FD6" stroke-opacity="0.3"/>
<path d="M2078.59 1013.05C2071.89 1003.78 1810.97 902.794 1640.1 709.001C1469.23 515.207 1312.88 344.181 1215.02 349.813C1065.89 355.445 985.152 458.661 800.95 470.793C656.143 489.38 583.424 498.594 374.613 430.018C248.762 391.509 208.371 360.766 103 354.426C15.9076 345.36 -145.265 386.78 -375.859 387.457C-606.454 388.135 -702.31 -61.7625 -813.314 -202.362" stroke="#453FD6" stroke-opacity="0.3"/>
<path d="M2077.46 994.888C2070.58 985.586 1799.63 899.694 1628.4 712.36C1457.18 525.027 1303.29 362.329 1202.9 368.473C1052.95 374.617 970.68 474.977 781.924 484.952C636.144 501.969 565.707 509.298 360.433 442.65C235.356 405.068 191.593 378.883 83.8489 373.632C-3.95482 365.407 -161.65 404.824 -389.416 405.562C-617.183 406.301 -668.941 -70.4239 -783.891 -207.422" stroke="#453FD6" stroke-opacity="0.3"/>
<path d="M2076.34 976.736C2069.27 967.397 1788.3 896.602 1616.72 715.728C1445.14 534.854 1293.71 380.485 1190.79 387.141C1040.03 393.797 956.223 491.301 762.913 499.12C616.16 514.567 548.005 520.01 346.27 455.29C221.966 418.634 174.83 397.008 64.7134 392.846C-23.8016 385.462 -178.018 422.875 -402.957 423.675C-627.897 424.475 -635.556 -79.077 -754.452 -212.474" stroke="#453FD6" stroke-opacity="0.3"/>
<path d="M2075.2 958.583C2067.96 949.207 1776.96 893.51 1605.03 719.096C1433.1 544.682 1284.11 398.641 1178.67 405.809C1027.09 412.977 941.751 507.625 743.887 513.287C596.161 527.164 530.286 530.721 332.09 467.93C208.559 432.2 158.052 415.132 45.5619 412.06C-43.6644 405.517 -194.403 440.926 -416.515 441.788C-638.626 442.65 -602.187 -87.7303 -725.03 -217.525" stroke="#453FD6" stroke-opacity="0.3"/>
<path d="M2074.07 940.422C2066.64 931.009 1765.62 890.41 1593.33 722.456C1421.05 554.502 1274.51 416.789 1166.55 424.469C1014.15 432.149 927.278 523.941 724.86 527.446C576.161 539.754 512.569 541.425 317.911 480.562C195.153 445.758 141.274 433.249 26.4107 431.266C-63.5268 425.565 -210.788 458.97 -430.072 459.893C-649.355 460.816 -568.817 -96.3914 -695.606 -222.585" stroke="#453FD6" stroke-opacity="0.3"/>
<path d="M2072.93 922.27C2065.32 912.82 1754.27 887.319 1581.64 725.824C1409 564.33 1264.92 434.945 1154.42 443.137C1001.2 451.329 912.806 540.265 705.834 541.614C556.162 552.351 494.851 552.137 303.732 493.203C181.747 459.325 124.496 451.374 7.25983 450.48C-83.3889 445.62 -227.172 477.021 -443.628 478.006C-660.084 478.991 -535.447 -105.045 -666.183 -227.636" stroke="#453FD6" stroke-opacity="0.3"/>
<path d="M2071.8 904.116C2064.01 894.63 1742.93 884.226 1569.94 729.192C1396.95 574.157 1255.32 453.101 1142.3 461.805C988.264 470.508 898.334 556.589 686.807 555.781C536.162 564.948 477.133 562.849 289.553 505.842C168.341 472.89 107.717 469.498 -11.8915 469.693C-103.252 465.675 -243.557 495.072 -457.185 496.118C-670.814 497.165 -502.078 -113.698 -636.76 -232.688" stroke="#453FD6" stroke-opacity="0.3"/>
<path d="M2070.68 885.956C2062.71 876.432 1731.61 881.127 1558.26 732.552C1384.92 583.977 1245.74 471.249 1130.19 480.465C975.338 489.681 883.878 572.905 667.797 569.941C516.179 577.538 459.431 573.553 275.389 518.475C154.951 486.449 90.9551 487.615 -31.0266 488.9C-123.098 485.723 -259.925 513.115 -470.726 514.223C-681.527 515.331 -468.692 -122.359 -607.321 -237.748" stroke="#453FD6" stroke-opacity="0.3"/>
<path d="M2069.54 867.803C2061.39 858.242 1720.26 878.035 1546.56 735.92C1372.87 593.804 1236.15 489.405 1118.07 499.132C962.397 508.86 869.405 589.229 648.77 584.108C496.179 590.135 441.713 584.264 261.21 531.115C141.544 500.015 74.1765 505.739 -50.1782 508.113C-142.961 505.778 -276.31 531.166 -484.284 532.336C-692.257 533.505 -435.323 -131.013 -577.898 -242.8" stroke="#453FD6" stroke-opacity="0.3"/>
<path d="M2068.41 849.642C2060.07 840.045 1708.92 874.935 1534.87 739.279C1360.82 603.624 1226.55 507.552 1105.95 517.792C949.456 528.032 854.933 605.545 629.744 598.267C476.18 602.725 423.996 594.968 247.031 543.747C128.139 513.573 57.3985 523.855 -69.3291 527.319C-162.823 525.825 -292.694 549.21 -497.84 550.441C-702.986 551.672 -401.953 -139.674 -548.475 -247.859" stroke="#453FD6" stroke-opacity="0.3"/>
<path d="M2067.27 831.49C2058.75 821.855 1697.58 871.843 1523.17 742.647C1348.77 613.452 1216.95 525.708 1093.82 536.46C936.515 547.212 840.461 621.869 610.717 612.434C456.181 615.323 406.278 605.68 232.851 556.387C114.732 527.139 40.6201 541.98 -88.4805 546.533C-182.686 545.88 -309.079 567.261 -511.397 568.554C-713.715 569.846 -368.584 -148.327 -519.052 -252.911" stroke="#453FD6" stroke-opacity="0.3"/>
<path d="M2066.14 813.329C2057.44 803.658 1686.24 868.744 1511.48 746.008C1336.72 623.272 1207.36 543.857 1081.7 555.121C923.574 566.385 825.988 638.185 591.691 626.594C436.181 627.912 388.56 616.384 218.672 569.02C101.326 540.698 23.8419 560.097 -107.632 565.739C-202.548 565.928 -325.463 585.305 -524.954 586.659C-724.444 588.013 -335.215 -156.988 -489.629 -257.97" stroke="#453FD6" stroke-opacity="0.3"/>
<path d="M2065.02 795.184C2056.14 785.476 1674.91 865.659 1499.8 749.383C1324.69 633.107 1197.78 562.02 1069.59 573.796C910.648 585.572 811.532 654.517 572.68 640.769C416.198 640.518 370.858 627.104 204.508 581.668C87.9355 554.272 7.07918 578.229 -126.767 584.961C-222.395 585.991 -341.833 603.364 -538.495 604.779C-735.158 606.195 -301.829 -165.633 -460.19 -263.014" stroke="#453FD6" stroke-opacity="0.3"/>
<path d="M2063.89 777.024C2054.82 767.278 1663.57 862.56 1488.1 752.743C1312.64 642.927 1188.18 580.168 1057.47 592.456C897.707 604.744 797.06 670.833 553.654 654.929C396.198 653.107 353.14 637.808 190.329 594.3C74.5296 567.83 -9.69864 596.346 -145.918 604.167C-242.257 606.038 -358.217 621.407 -552.052 622.884C-745.887 624.362 -268.46 -174.294 -430.767 -268.074" stroke="#453FD6" stroke-opacity="0.3"/>
<path d="M2062.75 758.863C2053.5 749.08 1652.22 859.46 1476.41 756.103C1300.59 652.747 1178.59 598.316 1045.35 611.116C884.766 623.916 782.587 687.149 534.627 669.088C376.199 665.696 335.422 648.512 176.15 606.932C61.1234 581.388 -26.477 614.462 -165.069 623.372C-262.119 626.085 -374.601 639.45 -565.609 640.989C-756.616 642.528 -235.09 -182.956 -401.344 -273.134" stroke="#453FD6" stroke-opacity="0.3"/>
<path d="M2061.62 740.718C2052.18 730.899 1640.88 856.376 1464.71 759.479C1288.54 662.582 1168.99 616.48 1033.22 629.792C871.825 643.104 768.115 703.481 515.601 683.263C356.2 678.302 317.704 659.232 161.971 619.58C47.7172 594.963 -43.2552 632.595 -184.221 642.594C-281.982 646.149 -390.986 657.51 -579.166 659.11C-767.345 660.71 -201.721 -191.601 -371.92 -278.177" stroke="#453FD6" stroke-opacity="0.3"/>
<path d="M2060.48 722.557C2050.87 712.701 1629.54 853.275 1453.01 762.839C1276.49 672.402 1159.39 634.628 1021.1 648.451C858.883 662.275 753.643 719.796 496.574 697.422C336.2 690.891 299.986 669.935 147.791 632.212C34.3107 608.52 -60.0338 650.711 -203.372 661.8C-301.845 666.196 -407.371 675.552 -592.723 677.214C-778.075 678.876 -168.351 -200.262 -342.498 -283.237" stroke="#453FD6" stroke-opacity="0.3"/>
<path d="M2059.36 704.397C2049.57 694.504 1618.21 850.176 1441.34 766.199C1264.46 682.222 1149.81 652.776 1008.99 667.112C845.958 681.448 739.186 736.113 477.564 711.582C316.217 703.481 282.285 680.639 133.628 644.844C20.9208 622.079 -76.7959 668.828 -222.507 681.006C-321.691 686.243 -423.739 693.596 -606.264 695.32C-788.788 697.043 -134.966 -208.923 -313.058 -288.296" stroke="#453FD6" stroke-opacity="0.3"/>
<path d="M2058.23 686.251C2048.25 676.322 1606.87 847.092 1429.64 769.574C1252.41 692.057 1140.22 670.939 996.871 685.787C833.017 700.635 724.714 752.444 458.537 725.757C296.217 716.086 264.567 691.359 119.448 657.492C7.51449 635.653 -93.5743 686.961 -241.658 700.228C-341.554 706.306 -440.124 711.655 -619.821 713.44C-799.518 715.225 -101.596 -217.569 -283.635 -293.34" stroke="#453FD6" stroke-opacity="0.3"/>
<path d="M2057.09 668.091C2046.93 658.124 1595.53 843.992 1417.94 772.934C1240.36 701.877 1130.62 689.088 984.748 704.447C820.076 719.807 710.242 768.761 439.511 739.916C276.218 728.676 246.849 702.063 105.269 670.124C-5.89169 649.211 -110.353 705.077 -260.81 719.434C-361.416 726.354 -456.509 729.698 -633.378 731.545C-810.247 733.392 -68.2267 -226.23 -254.212 -298.4" stroke="#453FD6" stroke-opacity="0.3"/>
<path d="M2055.96 649.93C2045.62 639.927 1584.19 840.892 1406.25 776.295C1228.31 711.697 1121.03 707.236 972.625 723.108C807.135 738.979 695.77 785.077 420.485 754.076C256.218 741.266 229.131 712.767 91.0899 682.757C-19.2977 662.769 -127.131 723.194 -279.961 738.64C-381.278 746.401 -472.893 747.742 -646.934 749.65C-820.976 751.558 -34.8572 -234.891 -224.789 -303.459" stroke="#453FD6" stroke-opacity="0.3"/>
<path d="M2054.82 631.778C2044.3 621.737 1572.84 837.801 1394.55 779.663C1216.26 721.525 1111.43 725.392 960.502 741.776C794.193 758.159 681.297 801.401 401.458 768.243C236.219 753.863 211.413 723.479 76.9105 695.397C-32.704 676.336 -143.909 741.319 -299.112 757.854C-401.141 766.456 -489.278 765.793 -660.491 767.763C-831.705 769.733 -1.48776 -243.544 -195.366 -308.511" stroke="#453FD6" stroke-opacity="0.3"/>
<path d="M2053.7 613.625C2043 603.547 1561.52 834.709 1382.87 783.03C1204.23 731.352 1101.85 743.547 948.394 760.443C781.268 777.339 666.841 817.725 382.447 782.411C216.235 766.46 193.711 734.19 62.7472 708.037C-46.0941 689.902 -160.671 759.443 -318.247 777.067C-420.987 786.511 -505.646 783.844 -674.032 785.876C-842.419 787.907 31.8976 -252.198 -165.927 -313.563" stroke="#453FD6" stroke-opacity="0.3"/>
<path d="M2052.57 595.464C2041.68 585.35 1550.17 831.609 1371.18 786.39C1192.18 741.172 1092.25 761.695 936.271 779.103C768.327 796.511 652.369 834.041 363.421 796.57C196.236 779.05 175.994 744.894 48.5677 720.669C-59.5004 703.46 -177.45 777.56 -337.399 796.273C-440.85 806.559 -522.031 801.888 -687.589 803.981C-853.148 806.073 65.2671 -260.859 -136.504 -318.622" stroke="#453FD6" stroke-opacity="0.3"/>
<path d="M2051.43 577.311C2040.36 567.16 1538.83 828.517 1359.48 789.758C1180.13 750.999 1082.66 779.851 924.148 797.771C755.386 815.691 637.896 850.365 344.394 810.737C176.236 791.647 158.275 755.606 34.3882 733.309C-72.9068 717.026 -194.228 795.684 -356.55 815.487C-460.713 826.614 -538.416 819.939 -701.147 822.093C-863.877 824.248 98.6364 -269.512 -107.081 -323.674" stroke="#453FD6" stroke-opacity="0.3"/>
<path d="M2050.3 559.159C2039.05 548.97 1527.49 825.425 1347.79 793.126C1168.08 760.827 1073.06 798.007 912.025 816.439C742.444 834.871 623.424 866.689 325.368 824.905C156.237 804.245 140.558 766.318 20.209 745.95C-86.3129 730.593 -211.006 813.809 -375.701 834.701C-480.575 846.669 -554.8 837.99 -714.703 840.206C-874.607 842.422 132.006 -278.165 -77.6579 -328.726" stroke="#453FD6" stroke-opacity="0.3"/>
<path d="M2049.16 540.998C2037.73 530.773 1516.15 822.325 1336.09 796.486C1156.03 770.647 1063.47 816.155 899.902 835.099C729.503 854.043 608.952 883.005 306.342 839.064C136.238 816.835 122.84 777.022 6.02984 758.582C-99.7189 744.151 -227.784 831.926 -394.852 853.907C-500.437 866.717 -571.184 856.034 -728.26 858.311C-885.336 860.589 165.376 -286.826 -48.2348 -333.785" stroke="#453FD6" stroke-opacity="0.3"/>
<path d="M2048.04 522.845C2036.43 512.583 1504.82 819.233 1324.41 799.854C1144 780.474 1053.89 834.311 887.795 853.767C716.578 873.222 594.496 899.329 287.331 853.231C116.254 829.432 105.138 787.733 -8.13351 771.222C-113.109 757.717 -244.547 850.05 -413.987 873.121C-520.284 886.772 -587.553 874.085 -741.801 876.424C-896.049 878.763 198.761 -295.48 -18.7957 -338.837" stroke="#453FD6" stroke-opacity="0.3"/>
<path d="M2046.91 504.692C2035.11 494.393 1493.48 816.141 1312.71 803.222C1131.95 790.302 1044.29 852.467 875.672 872.435C703.637 892.403 580.023 915.653 268.304 867.399C96.2546 842.03 87.42 798.445 -22.3132 783.862C-126.516 771.283 -261.325 868.175 -433.139 892.335C-540.147 906.827 -603.938 892.136 -755.359 894.537C-906.779 896.937 232.13 -304.133 10.627 -343.889" stroke="#453FD6" stroke-opacity="0.3"/>
<path d="M2045.77 486.532C2033.79 476.196 1482.14 813.042 1301.02 806.582C1119.9 800.122 1034.69 870.615 863.549 891.095C690.696 911.575 565.551 931.969 249.278 881.558C76.2553 854.619 69.7023 809.149 -36.4924 796.494C-139.922 784.841 -278.103 886.291 -452.29 911.541C-560.009 926.874 -620.322 910.179 -768.915 912.642C-917.508 915.104 265.5 -312.794 40.0503 -348.948" stroke="#453FD6" stroke-opacity="0.3"/>
<g filter="url(#filter0_f_5_98)">
<circle cx="1781" cy="136" r="359" fill="url(#paint0_radial_5_98)" fill-opacity="0.1"/>
</g>
<g filter="url(#filter1_f_5_98)">
<circle cx="152" cy="750" r="509" fill="url(#paint1_radial_5_98)" fill-opacity="0.1"/>
</g>
<g filter="url(#filter2_f_5_98)">
<circle cx="625" cy="74" r="509" fill="url(#paint2_radial_5_98)" fill-opacity="0.1"/>
</g>
<g filter="url(#filter3_f_5_98)">
<circle cx="1515.5" cy="643.5" r="260.5" fill="url(#paint3_radial_5_98)" fill-opacity="0.1"/>
</g>
<defs>
<filter id="filter0_f_5_98" x="1382" y="-263" width="798" height="798" filterUnits="userSpaceOnUse" color-interpolation-filters="sRGB">
<feFlood flood-opacity="0" result="BackgroundImageFix"/>
<feBlend mode="normal" in="SourceGraphic" in2="BackgroundImageFix" result="shape"/>
<feGaussianBlur stdDeviation="20" result="effect1_foregroundBlur_5_98"/>
</filter>
<filter id="filter1_f_5_98" x="-397" y="201" width="1098" height="1098" filterUnits="userSpaceOnUse" color-interpolation-filters="sRGB">
<feFlood flood-opacity="0" result="BackgroundImageFix"/>
<feBlend mode="normal" in="SourceGraphic" in2="BackgroundImageFix" result="shape"/>
<feGaussianBlur stdDeviation="20" result="effect1_foregroundBlur_5_98"/>
</filter>
<filter id="filter2_f_5_98" x="76" y="-475" width="1098" height="1098" filterUnits="userSpaceOnUse" color-interpolation-filters="sRGB">
<feFlood flood-opacity="0" result="BackgroundImageFix"/>
<feBlend mode="normal" in="SourceGraphic" in2="BackgroundImageFix" result="shape"/>
<feGaussianBlur stdDeviation="20" result="effect1_foregroundBlur_5_98"/>
</filter>
<filter id="filter3_f_5_98" x="1215" y="343" width="601" height="601" filterUnits="userSpaceOnUse" color-interpolation-filters="sRGB">
<feFlood flood-opacity="0" result="BackgroundImageFix"/>
<feBlend mode="normal" in="SourceGraphic" in2="BackgroundImageFix" result="shape"/>
<feGaussianBlur stdDeviation="20" result="effect1_foregroundBlur_5_98"/>
</filter>
<radialGradient id="paint0_radial_5_98" cx="0" cy="0" r="1" gradientUnits="userSpaceOnUse" gradientTransform="translate(1781 136) rotate(90) scale(359)">
<stop stop-color="#FF136D"/>
<stop offset="1" stop-color="#FF136D" stop-opacity="0"/>
</radialGradient>
<radialGradient id="paint1_radial_5_98" cx="0" cy="0" r="1" gradientUnits="userSpaceOnUse" gradientTransform="translate(152 750) rotate(90) scale(509)">
<stop stop-color="#FF136D"/>
<stop offset="1" stop-color="#FF136D" stop-opacity="0"/>
</radialGradient>
<radialGradient id="paint2_radial_5_98" cx="0" cy="0" r="1" gradientUnits="userSpaceOnUse" gradientTransform="translate(625 74) rotate(90) scale(509)">
<stop stop-color="#00C7FD"/>
<stop offset="1" stop-color="#00C7FD" stop-opacity="0"/>
</radialGradient>
<radialGradient id="paint3_radial_5_98" cx="0" cy="0" r="1" gradientUnits="userSpaceOnUse" gradientTransform="translate(1515.5 643.5) rotate(90) scale(260.5)">
<stop stop-color="#00C7FD"/>
<stop offset="1" stop-color="#00C7FD" stop-opacity="0"/>
</radialGradient>
</defs>
</svg>
