<svg width="25" height="25" viewBox="0 0 25 25" fill="none" xmlns="http://www.w3.org/2000/svg">
<path d="M12.6217 0.878662C6.00742 0.878662 0.643921 6.33261 0.643921 13.0609C0.643921 18.4435 4.07592 23.01 8.83506 24.6209C9.43367 24.7336 9.65344 24.3566 9.65344 24.0348C9.65344 23.7443 9.64233 22.7846 9.63718 21.7667C6.30495 22.5036 5.60181 20.3293 5.60181 20.3293C5.05695 18.9212 4.27189 18.5468 4.27189 18.5468C3.18514 17.7907 4.35381 17.8062 4.35381 17.8062C5.55658 17.8919 6.1899 19.0616 6.1899 19.0616C7.2582 20.924 8.99195 20.3856 9.67546 20.0743C9.78296 19.2871 10.0934 18.7493 10.4359 18.4453C7.77549 18.1372 4.9788 17.0926 4.9788 12.4247C4.9788 11.0946 5.4467 10.0079 6.21291 9.15471C6.08855 8.84767 5.67857 7.6088 6.32895 5.93075C6.32895 5.93075 7.33476 5.60334 9.62369 7.1795C10.5791 6.90958 11.6038 6.77422 12.6217 6.76958C13.6396 6.77422 14.6651 6.90958 15.6223 7.1795C17.9084 5.60334 18.9129 5.93075 18.9129 5.93075C19.5648 7.6088 19.1547 8.84767 19.0303 9.15471C19.7983 10.0079 20.263 11.0946 20.263 12.4247C20.263 17.1037 17.461 18.134 14.7938 18.4356C15.2234 18.8137 15.6062 19.555 15.6062 20.6916C15.6062 22.3215 15.5924 23.6334 15.5924 24.0348C15.5924 24.359 15.808 24.7389 16.4151 24.6192C21.1717 23.0066 24.5993 18.4417 24.5993 13.0609C24.5993 6.33261 19.2366 0.878662 12.6217 0.878662Z" fill="white" fill-opacity="0.3"/>
</svg>
