<svg width="25" height="25" viewBox="0 0 25 25" fill="none" xmlns="http://www.w3.org/2000/svg">
<path fill-rule="evenodd" clip-rule="evenodd" d="M12.6 0.788574C5.97262 0.788574 0.600037 6.16116 0.600037 12.7886C0.600037 19.416 5.97262 24.7886 12.6 24.7886C19.2275 24.7886 24.6 19.416 24.6 12.7886C24.6 6.16116 19.2275 0.788574 12.6 0.788574ZM9.96168 6.42724C10.6443 6.39617 10.8625 6.38857 12.6006 6.38857H12.5986C14.3373 6.38857 14.5547 6.39617 15.2373 6.42724C15.9187 6.45844 16.384 6.56631 16.792 6.72458C17.2134 6.88791 17.5694 7.10658 17.9254 7.46259C18.2814 7.81832 18.5 8.17539 18.664 8.59633C18.8214 9.00327 18.9294 9.46834 18.9614 10.1497C18.992 10.8324 19 11.0505 19 12.7886C19 14.5268 18.992 14.7444 18.9614 15.4271C18.9294 16.1081 18.8214 16.5733 18.664 16.9804C18.5 17.4012 18.2814 17.7583 17.9254 18.114C17.5698 18.47 17.2132 18.6892 16.7924 18.8527C16.3852 19.011 15.9196 19.1188 15.2383 19.15C14.5556 19.1811 14.3381 19.1887 12.5998 19.1887C10.8618 19.1887 10.6438 19.1811 9.96114 19.15C9.27993 19.1188 8.81473 19.011 8.40753 18.8527C7.98686 18.6892 7.62978 18.47 7.27418 18.114C6.91831 17.7583 6.69964 17.4012 6.53604 16.9803C6.3779 16.5733 6.27004 16.1083 6.2387 15.4269C6.20777 14.7443 6.20004 14.5268 6.20004 12.7886C6.20004 11.0505 6.20804 10.8322 6.23857 10.1495C6.26924 9.46847 6.37724 9.00327 6.53591 8.5962C6.69991 8.17539 6.91858 7.81832 7.27458 7.46259C7.63032 7.10671 7.98739 6.88805 8.40833 6.72458C8.81526 6.56631 9.28034 6.45844 9.96168 6.42724Z" fill="white" fill-opacity="0.3"/>
<path fill-rule="evenodd" clip-rule="evenodd" d="M12.0265 7.54188C12.138 7.54171 12.2579 7.54176 12.3873 7.54182L12.6006 7.54188C14.3095 7.54188 14.512 7.54802 15.1868 7.57868C15.8108 7.60722 16.1495 7.71148 16.3751 7.79909C16.6737 7.91509 16.8867 8.05376 17.1105 8.27776C17.3346 8.50176 17.4732 8.7151 17.5895 9.01377C17.6771 9.2391 17.7815 9.57777 17.8099 10.2018C17.8406 10.8765 17.8472 11.0791 17.8472 12.7871C17.8472 14.4952 17.8406 14.6978 17.8099 15.3725C17.7814 15.9965 17.6771 16.3352 17.5895 16.5605C17.4735 16.8592 17.3346 17.0718 17.1105 17.2957C16.8865 17.5197 16.6739 17.6584 16.3751 17.7744C16.1497 17.8624 15.8108 17.9664 15.1868 17.9949C14.5121 18.0256 14.3095 18.0323 12.6006 18.0323C10.8917 18.0323 10.6891 18.0256 10.0145 17.9949C9.39047 17.9661 9.0518 17.8619 8.82606 17.7743C8.52739 17.6583 8.31406 17.5196 8.09005 17.2956C7.86605 17.0716 7.72738 16.8588 7.61112 16.56C7.52351 16.3346 7.41911 15.996 7.39071 15.372C7.36005 14.6973 7.35391 14.4946 7.35391 12.7855C7.35391 11.0765 7.36005 10.8749 7.39071 10.2002C7.41925 9.57617 7.52351 9.2375 7.61112 9.0119C7.72712 8.71323 7.86605 8.49989 8.09005 8.27589C8.31406 8.05189 8.52739 7.91322 8.82606 7.79695C9.05166 7.70895 9.39047 7.60495 10.0145 7.57628C10.6049 7.54962 10.8337 7.54162 12.0265 7.54028V7.54188ZM16.0169 8.60456C15.5929 8.60456 15.2489 8.94816 15.2489 9.3723C15.2489 9.79631 15.5929 10.1403 16.0169 10.1403C16.4409 10.1403 16.7849 9.79631 16.7849 9.3723C16.7849 8.9483 16.4409 8.60429 16.0169 8.60429V8.60456ZM9.31393 12.7886C9.31393 10.9736 10.7855 9.50197 12.6005 9.5019C14.4156 9.5019 15.8868 10.9735 15.8868 12.7886C15.8868 14.6037 14.4157 16.0746 12.6006 16.0746C10.7855 16.0746 9.31393 14.6037 9.31393 12.7886Z" fill="white" fill-opacity="0.3"/>
<path d="M12.6006 10.6553C13.7788 10.6553 14.734 11.6104 14.734 12.7886C14.734 13.9668 13.7788 14.922 12.6006 14.922C11.4224 14.922 10.4673 13.9668 10.4673 12.7886C10.4673 11.6104 11.4224 10.6553 12.6006 10.6553Z" fill="white" fill-opacity="0.3"/>
</svg>
