<svg width="101" height="17" viewBox="0 0 101 17" fill="none" xmlns="http://www.w3.org/2000/svg">
<path d="M0.411743 16.078V1.55173H7.05975C9.34373 1.55173 10.4857 2.73068 10.4857 5.08857V6.35173C10.4857 6.82893 10.3498 7.23594 10.0779 7.57278L9.36412 8.457L10.2206 9.19384C10.6692 9.57279 10.8936 10.1342 10.8936 10.878V12.5412C10.8936 14.8991 9.75158 16.078 7.4676 16.078H0.411743ZM3.34829 13.3412H7.34525C7.7531 13.3412 7.95703 13.1307 7.95703 12.7096V10.6044C7.95703 10.1833 7.7531 9.97278 7.34525 9.97278H3.34829V13.3412ZM3.34829 7.23594H6.93739C7.34525 7.23594 7.54917 7.02542 7.54917 6.60436V4.92015C7.54917 4.4991 7.34525 4.28858 6.93739 4.28858H3.34829V7.23594Z" fill="white"/>
<path d="M13.1234 12.0359V0.499102H15.9376V12.3307C15.9376 13.2009 16.3726 13.6851 17.2427 13.7833V16.2886C14.4965 16.2886 13.1234 14.871 13.1234 12.0359Z" fill="white"/>
<path d="M19.0489 12.6675V8.37279C19.0489 6.0991 20.1501 4.96226 22.3525 4.96226H25.2075C27.4099 4.96226 28.5111 6.0991 28.5111 8.37279V12.6675C28.5111 14.9412 27.4099 16.078 25.2075 16.078H22.3525C20.1501 16.078 19.0489 14.9412 19.0489 12.6675ZM21.8631 12.878C21.8631 13.3272 22.0806 13.5517 22.5156 13.5517H25.0443C25.4794 13.5517 25.6969 13.3272 25.6969 12.878V8.16226C25.6969 7.71314 25.4794 7.48857 25.0443 7.48857H22.5156C22.0806 7.48857 21.8631 7.71314 21.8631 8.16226V12.878Z" fill="white"/>
<path d="M30.8113 12.6675V8.37279C30.8113 6.0991 31.9125 4.96226 34.1149 4.96226H37.9079L39.1315 5.90963V7.48857H34.278C33.843 7.48857 33.6255 7.71314 33.6255 8.16226V12.878C33.6255 13.3272 33.843 13.5517 34.278 13.5517H39.1315V15.1307L37.9079 16.078H34.1149C31.9125 16.078 30.8113 14.9412 30.8113 12.6675Z" fill="white"/>
<path d="M41.2233 16.078V0.499102H44.0375V9.15173L47.7694 4.96226H50.5428L50.7671 5.44647L47.0352 9.59384L51.0526 15.5938L50.8283 16.078H48.0753L45.1795 11.678L44.0375 12.9623V16.078H41.2233Z" fill="white"/>
<path d="M52.5836 12.6675V8.37279C52.5836 6.0991 53.6848 4.96226 55.8872 4.96226H59.6803L60.9038 5.90963V7.48857H56.0504C55.6153 7.48857 55.3978 7.71314 55.3978 8.16226V12.878C55.3978 13.3272 55.6153 13.5517 56.0504 13.5517H60.9038V15.1307L59.6803 16.078H55.8872C53.6848 16.078 52.5836 14.9412 52.5836 12.6675Z" fill="white"/>
<path d="M62.9957 16.078V0.499102H65.8099V4.96226H68.9503C71.1527 4.96226 72.2539 6.0991 72.2539 8.37279V16.078H69.4398V8.16226C69.4398 7.71314 69.2222 7.48857 68.7872 7.48857H65.8099V16.078H62.9957Z" fill="white"/>
<path d="M77.5305 16.078C75.3281 16.078 74.2269 14.9623 74.2269 12.7307C74.2269 10.4991 75.3281 9.38331 77.5305 9.38331H80.3447V8.16226C80.3447 7.71314 80.1272 7.48857 79.6922 7.48857H75.3689V5.90963L76.5925 4.96226H79.8553C82.0577 4.96226 83.1589 6.0991 83.1589 8.37279V16.078H77.5305ZM77.0411 12.878C77.0411 13.3272 77.2586 13.5517 77.6937 13.5517H80.3447V11.6149H77.6937C77.2586 11.6149 77.0411 11.8395 77.0411 12.2886V12.878Z" fill="white"/>
<path d="M85.6428 3.13068V0.288574H88.5794V3.13068H85.6428ZM85.704 16.078V4.96226H88.5182V16.078H85.704Z" fill="white"/>
<path d="M91.1535 16.078V4.96226H97.1081C99.3105 4.96226 100.412 6.0991 100.412 8.37279V16.078H97.5975V8.16226C97.5975 7.71314 97.38 7.48857 96.945 7.48857H93.9677V16.078H91.1535Z" fill="white"/>
</svg>
