<svg width="134" height="22" viewBox="0 0 134 22" fill="none" xmlns="http://www.w3.org/2000/svg">
<path d="M0.823547 21.0123V1.94647H9.66539C12.7031 1.94647 14.2219 3.49384 14.2219 6.58857V8.24647C14.2219 8.87278 14.0411 9.407 13.6795 9.8491L12.7302 11.0096L13.8693 11.9767C14.466 12.4741 14.7644 13.2109 14.7644 14.1873V16.3702C14.7644 19.4649 13.2455 21.0123 10.2078 21.0123H0.823547ZM4.72915 17.4202H10.0451C10.5876 17.4202 10.8588 17.1438 10.8588 16.5912V13.828C10.8588 13.2754 10.5876 12.9991 10.0451 12.9991H4.72915V17.4202ZM4.72915 9.407H9.50266C10.0451 9.407 10.3163 9.13068 10.3163 8.57805V6.36752C10.3163 5.81489 10.0451 5.53858 9.50266 5.53858H4.72915V9.407Z" fill="white"/>
<path d="M17.73 15.707V0.564891H21.4729V16.0938C21.4729 17.2359 22.0515 17.8715 23.2087 18.0004V21.2886C19.5562 21.2886 17.73 19.428 17.73 15.707Z" fill="white"/>
<path d="M25.6109 16.5359V10.8991C25.6109 7.91489 27.0755 6.42279 30.0047 6.42279H33.8018C36.731 6.42279 38.1956 7.91489 38.1956 10.8991V16.5359C38.1956 19.5202 36.731 21.0123 33.8018 21.0123H30.0047C27.0755 21.0123 25.6109 19.5202 25.6109 16.5359ZM29.3538 16.8123C29.3538 17.4017 29.6431 17.6965 30.2217 17.6965H33.5849C34.1635 17.6965 34.4528 17.4017 34.4528 16.8123V10.6228C34.4528 10.0333 34.1635 9.73857 33.5849 9.73857H30.2217C29.6431 9.73857 29.3538 10.0333 29.3538 10.6228V16.8123Z" fill="white"/>
<path d="M41.255 16.5359V10.8991C41.255 7.91489 42.7196 6.42279 45.6488 6.42279H50.6935L52.3208 7.66621V9.73857H45.8657C45.2871 9.73857 44.9978 10.0333 44.9978 10.6228V16.8123C44.9978 17.4017 45.2871 17.6965 45.8657 17.6965H52.3208V19.7688L50.6935 21.0123H45.6488C42.7196 21.0123 41.255 19.5202 41.255 16.5359Z" fill="white"/>
<path d="M55.103 21.0123V0.564891H58.8458V11.9215L63.8092 6.42279H67.4978L67.7962 7.05831L62.8328 12.5017L68.1759 20.3767L67.8775 21.0123H64.216L60.3647 15.2373L58.8458 16.9228V21.0123H55.103Z" fill="white"/>
<path d="M70.2122 16.5359V10.8991C70.2122 7.91489 71.6768 6.42279 74.606 6.42279H79.6507L81.278 7.66621V9.73857H74.8229C74.2443 9.73857 73.955 10.0333 73.955 10.6228V16.8123C73.955 17.4017 74.2443 17.6965 74.8229 17.6965H81.278V19.7688L79.6507 21.0123H74.606C71.6768 21.0123 70.2122 19.5202 70.2122 16.5359Z" fill="white"/>
<path d="M84.0602 21.0123V0.564891H87.8031V6.42279H91.9799C94.9091 6.42279 96.3737 7.91489 96.3737 10.8991V21.0123H92.6308V10.6228C92.6308 10.0333 92.3415 9.73857 91.7629 9.73857H87.8031V21.0123H84.0602Z" fill="white"/>
<path d="M103.392 21.0123C100.462 21.0123 98.9977 19.5478 98.9977 16.6188C98.9977 13.6899 100.462 12.2254 103.392 12.2254H107.134V10.6228C107.134 10.0333 106.845 9.73857 106.267 9.73857H100.517V7.66621L102.144 6.42279H106.483C109.413 6.42279 110.877 7.91489 110.877 10.8991V21.0123H103.392ZM102.741 16.8123C102.741 17.4017 103.03 17.6965 103.609 17.6965H107.134V15.1544H103.609C103.03 15.1544 102.741 15.4491 102.741 16.0386V16.8123Z" fill="white"/>
<path d="M114.181 4.01884V0.288574H118.087V4.01884H114.181ZM114.262 21.0123V6.42279H118.005V21.0123H114.262Z" fill="white"/>
<path d="M121.51 21.0123V6.42279H129.43C132.359 6.42279 133.824 7.91489 133.824 10.8991V21.0123H130.081V10.6228C130.081 10.0333 129.791 9.73857 129.213 9.73857H125.253V21.0123H121.51Z" fill="white"/>
</svg>
