<?xml version="1.0" encoding="UTF-8"?>
<svg id="Layer_1" data-name="Layer 1" xmlns="http://www.w3.org/2000/svg" xmlns:xlink="http://www.w3.org/1999/xlink" viewBox="0 0 1200 1200">
  <defs>
    <style>
      .cls-1 {
        fill: url(#linear-gradient);
      }

      .cls-2 {
        fill: #ed1164;
      }

      .cls-3 {
        fill: #626cb2;
      }

      .cls-4 {
        fill: url(#linear-gradient-2);
      }
    </style>
    <linearGradient id="linear-gradient" x1="286.02" y1="585.09" x2="857.13" y2="585.09" gradientTransform="matrix(1, 0, 0, 1, 0, 0)" gradientUnits="userSpaceOnUse">
      <stop offset="0" stop-color="#ed1164"/>
      <stop offset=".13" stop-color="#e61567"/>
      <stop offset=".32" stop-color="#d22272"/>
      <stop offset=".55" stop-color="#b33684"/>
      <stop offset=".81" stop-color="#88539c"/>
      <stop offset="1" stop-color="#626cb2"/>
    </linearGradient>
    <linearGradient id="linear-gradient-2" x1="772.86" y1="611.73" x2="772.87" y2="611.73" xlink:href="#linear-gradient"/>
  </defs>
  <g>
    <path class="cls-1" d="M856.76,590.06c-.94-21.12-3.62-42.15-7.97-62.83-2.19-10.34-4.78-20.59-7.9-30.69-3.17-10.05-6.62-20.03-11.52-29.51h0c-4.91-12.93-11.61-24.95-18.97-36.51-7.49-11.51-15.78-22.5-24.85-32.8-18.12-20.62-39.04-38.71-61.79-53.99-5.63-3.92-11.51-7.44-17.33-11.05-5.96-3.38-11.85-6.88-17.97-9.96-6.02-3.27-12.26-6.11-18.43-9.07-3.1-1.45-6.28-2.74-9.41-4.11-3.15-1.35-6.27-2.75-9.49-3.93-25.46-10.08-51.82-17.82-78.6-23.47,26.74,5.83,53.03,13.74,78.39,23.99,3.2,1.21,6.31,2.62,9.44,3.99,3.12,1.4,6.28,2.7,9.37,4.17,6.14,3,12.35,5.87,18.33,9.17,6.09,3.11,11.94,6.64,17.86,10.05,5.78,3.64,11.62,7.19,17.2,11.14,22.57,15.39,43.27,33.55,61.15,54.17,8.95,10.3,17.11,21.28,24.46,32.75,7.23,11.52,13.83,23.58,18.54,36.27l.03,.07,.04,.08c4.72,9.24,8.12,19.25,11.2,29.25,3.04,10.04,5.54,20.24,7.65,30.51,4.19,20.56,6.71,41.46,7.52,62.42,1.61,41.88-3.9,84.2-18.22,123.56-7.16,19.65-16.48,38.51-27.85,56.04-11.35,17.55-24.76,33.73-39.68,48.35-14.9,14.63-31.48,27.56-49.54,37.92-18.03,10.39-37.62,18.06-57.93,22.38-20.31,4.28-41.32,5.15-61.9,2.53-20.58-2.6-40.7-8.65-59.36-17.69-18.65-9.04-35.87-21.07-50.52-35.66-7.28-7.33-13.98-15.24-19.71-23.8-5.7-8.37-9.83-17.87-13.03-27.63-6.3-19.54-8.71-40.53-5.77-60.73,1.49-10.08,4.4-19.92,8.82-29.02,4.45-9.08,10.37-17.42,17.55-24.55,7.16-7.16,15.47-13.16,24.43-18.04,4.54-2.47,8.98-4.58,13.64-5.95,4.65-1.37,9.46-1.95,14.17-1.57,4.72,.36,9.33,1.67,13.65,3.76,4.31,2.12,8.28,5,11.92,8.32,2.42,2.25,4.7,4.74,6.83,7.36-.72-.36-1.42-.76-2.16-1.11-7.12-3.29-15.03-5.48-23.23-5.37-8.19,.06-16.41,2.79-23.06,7.39-6.72,4.56-11.99,10.63-16.31,17.04-8.4,12.88-14.3,27.42-16.3,42.79-2.09,15.34,.15,31.06,5.41,45.41,5.32,14.37,13.44,27.49,23.32,38.99,4.95,5.75,10.32,11.15,16.37,15.91,6.03,4.72,12.49,8.76,19.2,12.28,26.89,13.99,57.57,19.91,87.63,17.89,30.12-2.02,59.46-12.64,84.22-29.64,12.46-8.43,23.73-18.4,34.3-28.88,10.57-10.54,20.32-21.91,29.15-33.96,17.58-24.16,30.91-51.47,38.77-80.29,4-14.39,6.6-29.13,8.45-43.85l1.37-11.03c.45-3.75,.7-7.48,.86-11.22,.31-7.47,.23-14.94-.14-22.38-1.57-29.75-7.32-59.25-17.16-87.35-9.88-28.05-23.94-54.78-42.58-78.04-9.29-11.62-19.41-22.55-30.33-32.64-10.88-10.13-22.51-19.45-34.81-27.78-24.54-16.78-51.72-29.55-80.06-38.32-28.38-8.72-57.91-13.39-87.52-14.56-29.62-1.16-59.36,1.27-88.37,7.22-29.03,5.9-57.34,15.05-84.55,26.67-13.62,5.79-26.92,12.29-39.93,19.34-12.98,7.09-25.7,14.7-37.73,23.29,12.09-8.52,24.85-16.05,37.86-23.06,13.04-6.96,26.37-13.38,40.01-19.08,27.25-11.43,55.56-20.4,84.55-26.1,28.98-5.76,58.61-8,88.09-6.66,29.47,1.36,58.81,6.19,86.94,15.03,28.09,8.88,54.96,21.73,79.16,38.5,12.14,8.33,23.59,17.63,34.29,27.72,10.73,10.06,20.69,20.96,29.8,32.49,18.25,23.05,31.96,49.49,41.56,77.24,9.55,27.79,15.05,56.97,16.43,86.29,.32,7.33,.35,14.67,0,21.97-.26,7.29-1.37,14.49-2.32,21.86-1.92,14.6-4.56,29.05-8.57,43.14-7.88,28.22-21.08,54.84-38.44,78.4-8.72,11.75-18.34,22.84-28.78,33.12-10.48,10.26-21.52,19.91-33.61,27.99-24.08,16.34-52.36,26.37-81.32,28.17-28.89,1.8-58.43-4.1-83.99-17.58-6.36-3.38-12.46-7.25-18.06-11.68-5.56-4.41-10.63-9.58-15.29-15.06-9.31-10.98-16.9-23.46-21.76-36.89-4.81-13.42-6.74-27.84-4.74-41.85,1.89-13.99,7.48-27.51,15.28-39.31,3.95-5.79,8.64-11.05,14.22-14.77,5.55-3.75,11.98-5.83,18.6-5.86,7.84-.04,15.74,2.5,22.98,6.43,.77,.42,.54,1.58-.32,1.71l-6.8,1c-8.11,1.26-16.27,3.82-23.42,8.54-7.18,4.64-12.92,11.69-16.09,19.57-3.21,7.9-4.22,16.3-4.07,24.42,.18,8.16,1.35,16.1,3.27,23.93,1.94,7.82,4.74,15.46,8.5,22.62,7.45,14.41,19.1,26.5,32.71,35.04,13.64,8.58,29.04,13.88,44.8,16.33,3.95,.59,7.94,.99,11.98,1.12,4.08,.07,7.95-.06,11.93-.28,7.9-.48,15.77-1.45,23.54-2.99,31.12-5.98,60.31-21.36,82.84-43.48,11.42-10.96,20.86-23.63,29.73-36.5,8.84-12.94,16.75-26.54,23.31-40.79,3.37-7.08,6.17-14.42,8.81-21.81,2.46-7.45,4.7-14.98,6.35-22.65,3.38-15.35,4.53-31.1,4.17-46.74-.75-31.28-7.54-62.44-20.37-90.94-6.36-14.27-14.31-27.79-23.43-40.45-9.23-12.58-19.67-24.24-31.09-34.85,11.29,10.74,21.58,22.52,30.65,35.17,8.94,12.73,16.71,26.3,22.88,40.57,12.43,28.51,18.8,59.53,19.19,90.54,.17,15.51-1.15,31.04-4.66,46.11-1.72,7.55-4.01,14.94-6.52,22.26-2.69,7.25-5.55,14.45-8.95,21.41-6.65,13.98-14.62,27.31-23.5,39.99-8.95,12.64-18.38,24.99-29.6,35.53-22.21,21.33-50.63,35.87-80.83,41.34-7.53,1.41-15.17,2.26-22.83,2.65-3.8,.17-7.72,.25-11.43,.14-3.75-.16-7.52-.59-11.27-1.19-14.96-2.49-29.59-7.73-42.25-15.92-12.66-8.16-23.25-19.43-29.99-32.82-6.76-13.31-10.2-28.53-10.47-43.43-.06-7.42,.98-14.8,3.74-21.34,2.75-6.54,7.36-12.06,13.32-15.84,6.41-4.07,21.74-8.62,22.1-7.87s-5.08,4.35-7.2,6.55c-7.36,7.45-11.98,17.02-14.59,26.71-2.54,9.72-3.66,19.7-2.66,29.88,1.01,10.12,4.81,20.12,11,28.28,6.15,8.22,14.41,14.48,23.22,19.1,8.85,4.63,18.34,7.73,28.04,9.6,4.88,.95,9.81,1.43,14.63,1.79,4.87,.36,9.76,.51,14.66,.4,9.79-.21,19.59-1.42,29.12-3.81,19.09-4.66,36.87-14.11,51.79-26.67,15.01-12.54,27.11-28.08,37.3-44.45,10.2-16.43,18.44-34.1,24.14-52.59,2.86-9.24,5.08-18.67,6.61-28.22,1.46-9.52,2.38-19.05,1.96-28.85,.14-12.68-1.42-25.05-3.77-37.33-2.4-12.26-5.8-24.3-10.13-36-8.68-23.39-21.18-45.35-36.94-64.63-15.74-19.31-34.62-35.95-55.43-49.52-20.8-13.62-43.42-24.28-66.8-32.53,23.29,8.52,45.76,19.43,66.33,33.25,20.58,13.77,39.17,30.55,54.57,49.89,15.42,19.32,27.54,41.21,35.85,64.44,4.15,11.62,7.37,23.56,9.6,35.68,2.18,12.09,3.57,24.49,3.29,36.62v.21c.31,9.28-.69,18.86-2.25,28.17-1.61,9.34-3.89,18.57-6.8,27.6-5.8,18.06-14.09,35.29-24.27,51.28-10.2,15.98-22.14,30.9-36.73,42.8-14.5,11.92-31.54,20.69-49.75,24.92-18.14,4.34-37.4,4.16-55.67,.93-9.08-1.83-17.96-4.84-26.04-9.17-8.07-4.32-15.38-10.03-20.66-17.24-5.32-7.17-8.5-15.75-9.33-24.7-.82-8.89,.3-18.26,2.72-27,2.46-8.7,6.62-16.88,12.85-23.04,3.07-3.11,6.65-5.67,10.51-7.65,.81-.41,2.78-1.29,3.09-.81,.31,.48-4.03,6.15-5.57,9.51-3.01,6.66-5.51,13.6-7.16,20.84-1.63,7.23-2.41,14.82-1.51,22.44,.86,7.6,3.63,15.18,8.27,21.43,4.62,6.26,10.79,11.09,17.37,14.63,6.58,3.53,13.66,6.04,20.98,7.46,14.69,2.9,29.85,.78,43.58-3.98,13.81-4.78,26.47-12.09,38.05-20.64,5.8-4.27,11.32-8.9,16.58-13.81,5.21-4.91,10.31-10.21,14.63-16.02,8.75-11.5,15.64-24.35,20.67-37.83,5-13.5,8.13-27.63,9.6-41.89,1.47-14.26,1.35-28.64-.09-42.84-1.26-14.19-4.25-28.4-9.08-41.84-9.7-26.92-25.52-51.38-45.17-71.95-9.84-10.28-20.63-19.65-32.22-27.89-11.62-8.2-24-15.29-36.95-21.11-25.89-11.69-54.04-18.19-82.35-19.21,28.3,1.4,56.29,8.25,81.89,20.22,12.8,5.97,25.02,13.18,36.44,21.46,11.4,8.32,21.96,17.76,31.57,28.06,19.18,20.61,34.47,44.98,43.64,71.52,4.57,13.3,7.28,27.05,8.36,41.1,1.24,13.99,1.17,28.09-.44,41.99-3.15,27.76-13.08,54.91-30.24,76.83-4.21,5.51-9.03,10.4-14.18,15.14-5.15,4.69-10.55,9.12-16.21,13.17-11.28,8.13-23.54,14.97-36.59,19.31-12.99,4.33-26.91,6.03-40.1,3.25-12.98-2.8-26.04-9.17-33.58-19.59-3.76-5.2-5.96-11.38-6.63-17.85-.69-6.48,.03-13.19,1.59-19.73,1.14-4.68,2.69-9.33,4.54-13.87,.27-.65,1.24-.57,1.39,.12l1.69,7.61c1.27,5.76,3.57,11.37,6.92,16.3,3.37,4.91,7.73,9.1,12.62,12.29,9.75,6.59,21.77,9.12,33.13,8.32,11.44-.75,22.36-4.41,32.31-9.54,19.9-10.39,36.33-26.6,47.65-45.65,11.31-19.03,17.04-41.6,14.36-63.52,2.01,22-4.39,44.12-16.06,62.49-11.67,18.39-28.28,33.73-47.72,43.13-9.7,4.65-20.2,7.76-30.78,8.13-10.53,.4-21.12-2.2-29.49-8.3-4.2-2.98-7.77-6.72-10.46-10.98-2.67-4.28-4.44-9.09-5.34-14.11-1.14-6.33-1.38-19.71-.59-19.82,.79-.11,2.34,2.84,3.28,4.07,3.38,4.44,7.49,8.38,12.16,11.52,9.38,6.37,20.92,8.86,31.78,8.36,5.47-.23,10.8-1.08,16.06-2.4,5.28-1.31,10.45-3.29,15.23-6.01,9.63-5.37,17.43-13.68,22.71-23.09,5.31-9.44,8.41-19.8,10.21-30.21,.88-5.21,1.44-10.47,1.72-15.72,.22-5.29,.42-10.4-.05-15.86-2.22-21.04-9.06-41.23-19.42-59.46-5.18-9.11-11.46-17.59-18.56-25.28-7.18-7.62-15.19-14.47-23.96-20.17-17.56-11.46-37.63-18.34-57.97-22.24-20.41-3.84-41.22-4.91-61.88-4.26-20.67,.74-41.3,3-61.52,7.23,20.29-3.89,40.93-5.8,61.55-6.19,20.61-.3,41.3,1.12,61.45,5.26,20.09,4.2,39.71,11.34,56.65,22.8,8.47,5.7,16.15,12.51,23,20.03,6.78,7.6,12.73,15.93,17.62,24.86,9.76,17.81,16.09,37.74,17.85,57.83,.36,4.84,.07,10.09-.24,15.1-.37,5.06-.99,10.08-1.92,15.04-1.9,9.88-5.03,19.54-10.03,28.05-4.99,8.49-12.01,15.63-20.55,20.2-4.25,2.32-8.85,3.98-13.6,5.07-4.78,1.11-9.71,1.81-14.56,1.93-9.7,.25-19.32-2.08-27.03-7.5-3.85-2.69-7.25-6.04-10.06-9.87-1.06-1.44-2.05-2.94-2.94-4.5-.42-.72,.15-1.61,.99-1.58,4.95,.18,9.85-.05,14.82-.73,8-1.16,16.08-3.68,23.09-8.39,6.96-4.73,12.48-11.82,15.17-19.68,2.91-7.83,3.48-16.07,3.1-23.99-.75-15.83-5.54-31.59-14.36-44.81-8.85-13.2-21.25-23.65-35.03-30.98-6.9-3.69-14.12-6.71-21.67-8.88-7.67-2.04-15.33-2.91-23.06-3.61-15.44-1.14-30.99-.5-46.21,2.07-15.22,2.56-30.08,7.11-44.12,13.45-13.95,6.59-26.79,15.19-38.63,24.96,12.07-9.5,25.07-17.76,39.07-23.99,14.09-5.98,28.91-10.13,44.01-12.32,15.1-2.19,30.45-2.47,45.59-.99,7.53,.86,15.17,1.92,22.3,4.01,7.16,2.23,14.11,5.33,20.66,9.03,13.12,7.37,24.62,17.61,32.62,30.15,7.95,12.56,12.06,27.32,12.43,42.13,.19,7.36-.56,14.75-3.19,21.3-2.45,6.62-7.01,12.12-12.81,15.9-9.37,5.91-21.32,7.66-32.83,7.02-.73-.04-1.13-.87-.73-1.48,1.22-1.87,2.37-3.77,3.47-5.75,2.58-4.72,4.78-9.69,6.26-14.96,3.1-10.37,2.92-22.52-2.44-32.42-2.57-4.94-6.12-9.24-10.11-12.86-3.99-3.6-8.4-6.77-13.26-9.11-4.82-2.36-9.89-4.12-15.08-5.23-5.19-1.07-10.45-1.62-15.69-1.74-10.49-.12-20.88,1.4-30.89,4.09-10.01,2.7-19.7,6.48-28.84,11.28-9.15,4.77-17.79,10.54-25.49,17.38-7.63,6.85-14.45,14.89-18.57,24.31,4.45-9.27,11.49-16.98,19.27-23.5,7.85-6.5,16.58-11.89,25.74-16.28,18.31-8.66,38.57-13.91,58.62-13,4.99,.29,9.94,.99,14.74,2.16,4.8,1.2,9.41,2.99,13.7,5.29,4.31,2.25,8.2,5.28,11.69,8.65,3.47,3.37,6.39,7.21,8.4,11.44,4.16,8.45,4.02,18.35,1.01,27.4-2.11,6.52-5.53,12.87-9.61,18.53-.49,.68-1.52,.61-1.95-.11-1.4-2.33-2.89-4.57-4.5-6.8-3.23-4.46-6.9-8.66-11.03-12.44-4.16-3.74-8.8-7.09-13.96-9.59-5.18-2.47-10.86-4.06-16.65-4.46-5.79-.42-11.6,.35-17.03,1.98-5.44,1.62-10.54,4.11-15.22,6.71-9.49,5.25-18.39,11.75-26.08,19.55-7.71,7.76-14.1,16.87-18.84,26.73-4.72,9.88-7.77,20.49-9.28,31.24-2.97,21.56-.26,43.49,6.47,63.93,3.43,10.2,7.83,20.19,14.05,29.22,6.04,8.91,13.06,17.1,20.66,24.66,15.29,15.05,33.14,27.36,52.43,36.58,19.29,9.22,40.07,15.32,61.3,17.89,21.22,2.58,42.86,1.56,63.73-2.97,20.87-4.56,40.93-12.56,59.31-23.3,18.42-10.71,35.24-24,50.3-38.95,15.07-14.93,28.59-31.47,40-49.36,11.43-17.88,20.77-37.08,27.89-57.04,14.26-39.98,19.53-82.79,17.64-124.99Z"/>
    <path class="cls-4" d="M772.86,611.62c0,.06,0,.12,0,.19v-.19Z"/>
  </g>
  <circle class="cls-2" cx="710.4" cy="421.9" r="12.36"/>
  <circle class="cls-3" cx="514.21" cy="413.35" r="13.31"/>
  <circle class="cls-2" cx="410.49" cy="498.9" r="24.09"/>
  <circle class="cls-2" cx="274.08" cy="393.59" r="8.56"/>
  <circle class="cls-2" cx="410.49" cy="582.79" r="5.21"/>
  <circle class="cls-3" cx="422.02" cy="665.63" r="19.65"/>
  <circle class="cls-3" cx="821.31" cy="827.29" r="17.2"/>
</svg>