<svg width="25" height="25" viewBox="0 0 25 25" fill="none" xmlns="http://www.w3.org/2000/svg">
<path fill-rule="evenodd" clip-rule="evenodd" d="M0.600037 12.7886C0.600037 19.416 5.97262 24.7886 12.6 24.7886C19.2275 24.7886 24.6 19.416 24.6 12.7886C24.6 6.16116 19.2275 0.788574 12.6 0.788574C5.97262 0.788574 0.600037 6.16116 0.600037 12.7886ZM19.4007 10.6418C20.5033 10.6418 21.4 11.5348 21.4 12.6323C21.4 13.358 21.0064 13.9919 20.423 14.3391C20.447 14.5049 20.4599 14.6724 20.4599 14.8419C20.4599 17.6723 17.0078 19.9751 12.7649 19.9751C8.52154 19.9751 5.06981 17.6723 5.06981 14.8419C5.06981 14.6592 5.08486 14.4786 5.11281 14.3004C4.56436 13.9454 4.20004 13.3311 4.20004 12.6323C4.20004 11.5348 5.09678 10.642 6.19934 10.6418C6.68915 10.6418 7.1385 10.8193 7.4866 11.1119C8.81413 10.2758 10.5855 9.75076 12.5381 9.71262L13.6798 6.12001C13.7398 5.92892 13.9388 5.81664 14.1346 5.86237L17.0912 6.55493C17.3559 5.99294 17.928 5.60161 18.5917 5.60161C19.5053 5.60161 20.249 6.34166 20.249 7.25158C20.249 8.1615 19.5055 8.90155 18.5917 8.90155C17.6964 8.90155 16.9667 8.19069 16.9372 7.30665L14.306 6.68979L13.3416 9.72449C15.1756 9.81575 16.8317 10.3371 18.0843 11.1382C18.4364 10.8304 18.8965 10.6418 19.4007 10.6418Z" fill="white" fill-opacity="0.3"/>
<path d="M20.2121 13.5486C19.9308 12.8276 19.4187 12.1681 18.7332 11.6063C18.9256 11.4816 19.1546 11.4084 19.4009 11.4084C20.0788 11.4084 20.6301 11.9574 20.6301 12.6323C20.6297 12.9971 20.4675 13.3244 20.2121 13.5486Z" fill="white" fill-opacity="0.3"/>
<path d="M18.5917 6.36865C19.081 6.36865 19.4789 6.76504 19.4789 7.25211C19.4789 7.73918 19.081 8.13538 18.5917 8.13538C18.1023 8.13538 17.7044 7.73918 17.7044 7.25211C17.7044 6.76504 18.1023 6.36865 18.5917 6.36865Z" fill="white" fill-opacity="0.3"/>
<path fill-rule="evenodd" clip-rule="evenodd" d="M12.7649 19.2086C16.5829 19.2086 19.6898 17.2496 19.6898 14.8423C19.6898 14.7611 19.6857 14.681 19.6789 14.6006C19.6566 14.3441 19.5972 14.0937 19.5075 13.8504C19.2797 13.2365 18.848 12.6718 18.2573 12.1874C18.0615 12.0265 17.8488 11.8743 17.62 11.7325C16.3698 10.9558 14.6547 10.4756 12.7649 10.4756C10.902 10.4756 9.20974 10.9426 7.96371 11.6998C7.73542 11.8385 7.52218 11.9872 7.32536 12.1446C6.71026 12.6364 6.25994 13.2131 6.0252 13.8417C5.9347 14.0841 5.87528 14.3344 5.85202 14.5903C5.8446 14.6738 5.8399 14.7574 5.8399 14.8423C5.8399 17.2498 8.94626 19.2086 12.7649 19.2086ZM10.2326 12.7305C10.882 12.7305 11.4086 13.2729 11.4086 13.9193C11.4086 14.5656 10.882 15.0896 10.2326 15.0904C9.58345 15.0904 9.03871 14.5656 9.03871 13.9193C9.03871 13.2729 9.58325 12.7305 10.2326 12.7305ZM15.3853 12.7302C14.736 12.7302 14.1897 13.2723 14.1897 13.9187C14.1897 14.5654 14.736 15.0898 15.3853 15.0898C16.0348 15.0898 16.5618 14.5658 16.5618 13.9187C16.5614 13.2719 16.0348 12.7302 15.3853 12.7302ZM12.809 17.401C13.8838 17.401 14.6174 17.1907 15.053 16.7575C15.2037 16.608 15.4477 16.608 15.5984 16.7579C15.7487 16.9073 15.7487 17.1498 15.598 17.2998C15.0108 17.8836 14.0984 18.1679 12.809 18.1679C12.8073 18.1679 12.8058 18.1676 12.8042 18.1673C12.8027 18.167 12.8012 18.1667 12.7997 18.1667C12.7981 18.1667 12.7967 18.167 12.7952 18.1673C12.7937 18.1676 12.7922 18.1679 12.7905 18.1679C11.5009 18.1679 10.5887 17.8836 10.0021 17.2994C9.85161 17.1502 9.85161 16.9075 10.0021 16.7575C10.1524 16.6077 10.3963 16.6077 10.5466 16.7575C10.9817 17.1907 11.7155 17.401 12.7905 17.401C12.792 17.401 12.7934 17.4012 12.7949 17.4015C12.7964 17.4017 12.798 17.402 12.7997 17.402C12.8012 17.402 12.8027 17.4017 12.8042 17.4015C12.8058 17.4013 12.8073 17.401 12.809 17.401Z" fill="white" fill-opacity="0.3"/>
<path d="M4.97012 12.6323C4.97012 11.9576 5.5215 11.4084 6.19914 11.4084C6.42802 11.4084 6.64185 11.4725 6.82577 11.5816C6.13992 12.1364 5.62666 12.7893 5.33719 13.5029C5.11066 13.2808 4.97012 12.9728 4.97012 12.6323Z" fill="white" fill-opacity="0.3"/>
</svg>
