<svg width="131" height="131" viewBox="0 0 131 131" fill="none" xmlns="http://www.w3.org/2000/svg">
<g filter="url(#filter0_d_7_469)">
<rect x="27" y="41.7708" width="64" height="64" rx="16" transform="rotate(-13.3438 27 41.7708)" fill="#443DE9" shape-rendering="crispEdges"/>
<path d="M72.2014 54.6873L54.6873 58.8416C53.0752 59.2239 52.0783 60.8408 52.4607 62.4529L55.6918 76.075C56.0742 77.6871 57.6911 78.684 59.3032 78.3016L76.8172 74.1473C78.4294 73.7649 79.4263 72.1481 79.0439 70.5359L75.8128 56.9139C75.4304 55.3018 73.8135 54.3049 72.2014 54.6873Z" stroke="white" stroke-width="2" stroke-linecap="round" stroke-linejoin="round"/>
<path d="M70.3616 66.4289L61.6046 68.506C60.2611 68.8247 59.4304 70.1721 59.749 71.5155C60.0677 72.859 61.4151 73.6897 62.7585 73.371L71.5156 71.2939C72.859 70.9752 73.6897 69.6278 73.3711 68.2844C73.0524 66.941 71.705 66.1102 70.3616 66.4289Z" stroke="white" stroke-width="2" stroke-linecap="round" stroke-linejoin="round"/>
<path d="M68.4156 66.8905L69.5695 71.7555" stroke="white" stroke-width="2" stroke-linecap="round" stroke-linejoin="round"/>
<path d="M63.5506 68.0444L64.7045 72.9094" stroke="white" stroke-width="2" stroke-linecap="round" stroke-linejoin="round"/>
<path d="M63.4443 56.7644L62.2904 51.8994" stroke="white" stroke-width="2" stroke-linecap="round" stroke-linejoin="round"/>
<path d="M59.9392 65.8178C60.7452 65.6266 61.2437 64.8182 61.0525 64.0121C60.8613 63.2061 60.0529 62.7076 59.2468 62.8988C58.4407 63.09 57.9423 63.8984 58.1335 64.7045C58.3247 65.5106 59.1331 66.009 59.9392 65.8178Z" fill="white"/>
<path d="M70.6422 63.2791C71.4483 63.0879 71.9467 62.2795 71.7555 61.4734C71.5643 60.6674 70.7559 60.1689 69.9498 60.3601C69.1438 60.5513 68.6453 61.3597 68.8365 62.1658C69.0277 62.9719 69.8361 63.4703 70.6422 63.2791Z" fill="white"/>
</g>
<defs>
<filter id="filter0_d_7_469" x="-3" y="-3" width="137.043" height="137.043" filterUnits="userSpaceOnUse" color-interpolation-filters="sRGB">
<feFlood flood-opacity="0" result="BackgroundImageFix"/>
<feColorMatrix in="SourceAlpha" type="matrix" values="0 0 0 0 0 0 0 0 0 0 0 0 0 0 0 0 0 0 127 0" result="hardAlpha"/>
<feOffset/>
<feGaussianBlur stdDeviation="15"/>
<feComposite in2="hardAlpha" operator="out"/>
<feColorMatrix type="matrix" values="0 0 0 0 0.271669 0 0 0 0 0.24776 0 0 0 0 0.8375 0 0 0 0.4 0"/>
<feBlend mode="normal" in2="BackgroundImageFix" result="effect1_dropShadow_7_469"/>
<feBlend mode="normal" in="SourceGraphic" in2="effect1_dropShadow_7_469" result="shape"/>
</filter>
</defs>
</svg>
