<svg width="134" height="134" viewBox="0 0 134 134" fill="none" xmlns="http://www.w3.org/2000/svg">
<g filter="url(#filter0_d_7_470)">
<rect x="50.3638" y="25" width="64.0017" height="64.0017" rx="16" transform="rotate(23.347 50.3638 25)" fill="#FF136D" shape-rendering="crispEdges"/>
<path d="M60.3679 71.8786C57.3801 75.2043 52.1929 72.9649 52.1929 72.9649C52.1929 72.9649 54.4322 67.7777 58.8875 68.1489" stroke="white" stroke-width="2" stroke-linecap="round" stroke-linejoin="round"/>
<path d="M75.9746 67.8328L64.8182 72.2612L61.8638 64.8182L73.0202 60.3898C77.2428 58.7136 80.1774 60.0213 81.3605 60.7499C81.5441 60.86 81.6863 61.0275 81.7653 61.2264C81.8443 61.4254 81.8556 61.6448 81.7975 61.8508C81.4361 63.1924 80.1973 66.1567 75.9746 67.8328Z" stroke="white" stroke-width="2" stroke-linecap="round" stroke-linejoin="round"/>
<path d="M74.1179 68.5699L70.9174 75.9836C70.8094 76.2242 70.6107 76.4125 70.3646 76.5073L65.0525 78.6254C64.8842 78.6921 64.701 78.7118 64.5223 78.6825C64.3436 78.6532 64.1763 78.576 64.0381 78.459C63.8999 78.3421 63.796 78.1898 63.7376 78.0184C63.6792 77.8471 63.6684 77.663 63.7064 77.486L64.8182 72.2613" stroke="white" stroke-width="2" stroke-linecap="round" stroke-linejoin="round"/>
<path d="M71.1635 61.1268L63.7498 57.9263C63.5062 57.8252 63.2325 57.8245 62.9883 57.9243L57.6697 60.0259C57.5015 60.0928 57.3546 60.2041 57.2446 60.348C57.1347 60.4918 57.0659 60.6628 57.0455 60.8427C57.0252 61.0226 57.054 61.2047 57.129 61.3694C57.204 61.5342 57.3224 61.6756 57.4714 61.7783L61.8638 64.8182" stroke="white" stroke-width="2" stroke-linecap="round" stroke-linejoin="round"/>
</g>
<defs>
<filter id="filter0_d_7_470" x="-5.00002" y="-5" width="144.125" height="144.125" filterUnits="userSpaceOnUse" color-interpolation-filters="sRGB">
<feFlood flood-opacity="0" result="BackgroundImageFix"/>
<feColorMatrix in="SourceAlpha" type="matrix" values="0 0 0 0 0 0 0 0 0 0 0 0 0 0 0 0 0 0 127 0" result="hardAlpha"/>
<feOffset/>
<feGaussianBlur stdDeviation="15"/>
<feComposite in2="hardAlpha" operator="out"/>
<feColorMatrix type="matrix" values="0 0 0 0 1 0 0 0 0 0.075 0 0 0 0 0.427179 0 0 0 0.4 0"/>
<feBlend mode="normal" in2="BackgroundImageFix" result="effect1_dropShadow_7_470"/>
<feBlend mode="normal" in="SourceGraphic" in2="effect1_dropShadow_7_470" result="shape"/>
</filter>
</defs>
</svg>
