<svg width="17" height="13" viewBox="0 0 17 13" fill="none" xmlns="http://www.w3.org/2000/svg">
<g clip-path="url(#clip0_29_8736)">
<mask id="mask0_29_8736" style="mask-type:alpha" maskUnits="userSpaceOnUse" x="0" y="0" width="17" height="13">
<path d="M15.4 0.788574H1.80001C0.916357 0.788574 0.200012 1.50492 0.200012 2.38857V11.1886C0.200012 12.0722 0.916357 12.7886 1.80001 12.7886H15.4C16.2837 12.7886 17 12.0722 17 11.1886V2.38857C17 1.50492 16.2837 0.788574 15.4 0.788574Z" fill="white"/>
</mask>
<g mask="url(#mask0_29_8736)">
<path d="M15.4 0.788574H1.80001C0.916357 0.788574 0.200012 1.50492 0.200012 2.38857V11.1886C0.200012 12.0722 0.916357 12.7886 1.80001 12.7886H15.4C16.2837 12.7886 17 12.0722 17 11.1886V2.38857C17 1.50492 16.2837 0.788574 15.4 0.788574Z" fill="#0034A9"/>
<path fill-rule="evenodd" clip-rule="evenodd" d="M0.200012 8.78857H17V12.7886H0.200012V8.78857Z" fill="#D7280F"/>
<path fill-rule="evenodd" clip-rule="evenodd" d="M0.200012 0.788574H17V4.78857H0.200012V0.788574Z" fill="white"/>
<path d="M15.4 1.18848H1.80004C1.13729 1.18848 0.600037 1.72573 0.600037 2.38848V11.1885C0.600037 11.8512 1.13729 12.3885 1.80004 12.3885H15.4C16.0628 12.3885 16.6 11.8512 16.6 11.1885V2.38848C16.6 1.72573 16.0628 1.18848 15.4 1.18848Z" stroke="black" stroke-opacity="0.1"/>
</g>
</g>
<defs>
<clipPath id="clip0_29_8736">
<rect width="16.8" height="12" fill="white" transform="translate(0.200012 0.788574)"/>
</clipPath>
</defs>
</svg>
