<svg width="25" height="25" viewBox="0 0 25 25" fill="none" xmlns="http://www.w3.org/2000/svg">
<path fill-rule="evenodd" clip-rule="evenodd" d="M12.6 0.788574C5.97262 0.788574 0.600037 6.16116 0.600037 12.7886C0.600037 19.416 5.97262 24.7886 12.6 24.7886C19.2275 24.7886 24.6 19.416 24.6 12.7886C24.6 6.16116 19.2275 0.788574 12.6 0.788574ZM12.2658 10.9576L12.2406 10.5423C12.1651 9.46612 12.8282 8.48314 13.8774 8.10181C14.2635 7.96622 14.9182 7.94927 15.3463 8.06791C15.5142 8.11875 15.8332 8.28823 16.0598 8.44077L16.4711 8.72041L16.9244 8.57635C17.1762 8.50008 17.5119 8.37297 17.663 8.28823C17.8057 8.21197 17.9316 8.1696 17.9316 8.19502C17.9316 8.33908 17.621 8.83057 17.3608 9.10174C17.0083 9.48307 17.109 9.51697 17.8225 9.26275C18.2506 9.11869 18.259 9.11869 18.175 9.27969C18.1247 9.36444 17.8645 9.66103 17.5875 9.93219C17.1174 10.3983 17.0922 10.4491 17.0922 10.8389C17.0922 11.4406 16.8068 12.6947 16.5215 13.3811C15.9926 14.6692 14.8595 15.9996 13.7263 16.669C12.1315 17.6097 10.0079 17.8469 8.22003 17.2961C7.62407 17.1097 6.60004 16.6351 6.60004 16.5504C6.60004 16.525 6.91061 16.4911 7.28832 16.4826C8.07734 16.4657 8.86635 16.2453 9.53785 15.8555L9.99111 15.5844L9.4707 15.4064C8.73205 15.1522 8.06894 14.5675 7.90107 14.0167C7.85071 13.8387 7.86749 13.8302 8.33754 13.8302L8.82438 13.8218L8.41309 13.6269C7.92625 13.3811 7.48138 12.9659 7.26314 12.5422C7.10366 12.2371 6.90221 11.466 6.96097 11.4067C6.97776 11.3813 7.15402 11.4321 7.35547 11.4999C7.93464 11.7117 8.01019 11.6609 7.67444 11.305C7.04491 10.661 6.85185 9.7034 7.15402 8.79668L7.29672 8.38992L7.85071 8.94073C8.98386 10.0508 10.3185 10.7118 11.8461 10.9067L12.2658 10.9576Z" fill="white" fill-opacity="0.3"/>
</svg>
