<svg width="18" height="13" viewBox="0 0 18 13" fill="none" xmlns="http://www.w3.org/2000/svg">
<g clip-path="url(#clip0_29_8734)">
<mask id="mask0_29_8734" style="mask-type:alpha" maskUnits="userSpaceOnUse" x="0" y="0" width="18" height="13">
<path d="M15.8 0.788574H2.20004C1.31638 0.788574 0.600037 1.50492 0.600037 2.38857V11.1886C0.600037 12.0722 1.31638 12.7886 2.20004 12.7886H15.8C16.6837 12.7886 17.4 12.0722 17.4 11.1886V2.38857C17.4 1.50492 16.6837 0.788574 15.8 0.788574Z" fill="white"/>
</mask>
<g mask="url(#mask0_29_8734)">
<path d="M15.8 0.788574H2.20004C1.31638 0.788574 0.600037 1.50492 0.600037 2.38857V11.1886C0.600037 12.0722 1.31638 12.7886 2.20004 12.7886H15.8C16.6837 12.7886 17.4 12.0722 17.4 11.1886V2.38857C17.4 1.50492 16.6837 0.788574 15.8 0.788574Z" fill="white"/>
<path fill-rule="evenodd" clip-rule="evenodd" d="M0.600037 0.788574H7.80004V6.38857H0.600037V0.788574Z" fill="#444379"/>
<path fill-rule="evenodd" clip-rule="evenodd" d="M1.40002 1.58862V2.38862H2.20002V1.58862H1.40002ZM3.00002 1.58862V2.38862H3.80002V1.58862H3.00002ZM4.60002 1.58862V2.38862H5.40002V1.58862H4.60002ZM6.20002 1.58862V2.38862H7.00002V1.58862H6.20002ZM5.40002 2.38862V3.18862H6.20002V2.38862H5.40002ZM3.80002 2.38862V3.18862H4.60002V2.38862H3.80002ZM2.20002 2.38862V3.18862H3.00002V2.38862H2.20002ZM1.40002 3.18862V3.98862H2.20002V3.18862H1.40002ZM3.00002 3.18862V3.98862H3.80002V3.18862H3.00002ZM4.60002 3.18862V3.98862H5.40002V3.18862H4.60002ZM6.20002 3.18862V3.98862H7.00002V3.18862H6.20002ZM1.40002 4.78862V5.58862H2.20002V4.78862H1.40002ZM3.00002 4.78862V5.58862H3.80002V4.78862H3.00002ZM4.60002 4.78862V5.58862H5.40002V4.78862H4.60002ZM6.20002 4.78862V5.58862H7.00002V4.78862H6.20002ZM5.40002 3.98862V4.78862H6.20002V3.98862H5.40002ZM3.80002 3.98862V4.78862H4.60002V3.98862H3.80002ZM2.20002 3.98862V4.78862H3.00002V3.98862H2.20002Z" fill="#A7B6E7"/>
<path fill-rule="evenodd" clip-rule="evenodd" d="M7.80004 0.788574V1.58857H17.4V0.788574H7.80004ZM7.80004 2.38857V3.18857H17.4V2.38857H7.80004ZM7.80004 3.98857V4.78857H17.4V3.98857H7.80004ZM7.80004 5.58857V6.38857H17.4V5.58857H7.80004ZM0.600037 7.18857V7.98857H17.4V7.18857H0.600037ZM0.600037 8.78857V9.58857H17.4V8.78857H0.600037ZM0.600037 10.3886V11.1886H17.4V10.3886H0.600037ZM0.600037 11.9886V12.7886H17.4V11.9886H0.600037Z" fill="#ED4C49"/>
<path d="M15.8001 1.18848H2.20006C1.53732 1.18848 1.00006 1.72573 1.00006 2.38848V11.1885C1.00006 11.8512 1.53732 12.3885 2.20006 12.3885H15.8001C16.4628 12.3885 17.0001 11.8512 17.0001 11.1885V2.38848C17.0001 1.72573 16.4628 1.18848 15.8001 1.18848Z" stroke="black" stroke-opacity="0.1"/>
</g>
</g>
<defs>
<clipPath id="clip0_29_8734">
<rect width="16.8" height="12" fill="white" transform="translate(0.600037 0.788574)"/>
</clipPath>
</defs>
</svg>
