<svg width="25" height="25" viewBox="0 0 25 25" fill="none" xmlns="http://www.w3.org/2000/svg">
<path fill-rule="evenodd" clip-rule="evenodd" d="M0.600037 12.7886C0.600037 19.416 5.97262 24.7886 12.6 24.7886C19.2275 24.7886 24.6 19.416 24.6 12.7886C24.6 6.16116 19.2275 0.788574 12.6 0.788574C5.97262 0.788574 0.600037 6.16116 0.600037 12.7886ZM16.0729 12.7486L16.0779 12.7502C16.8939 13.006 17.802 13.6247 17.8 14.7154C17.8 16.518 15.2286 18.7886 11.3627 18.7886C8.41471 18.7886 5.40004 17.3429 5.40004 14.9672C5.40004 13.7238 6.17871 12.2861 7.51835 10.9317C9.30912 9.12118 11.398 8.29622 12.1826 9.09143C12.5278 9.44243 12.5611 10.0473 12.3395 10.7711C12.2218 11.134 12.6768 10.9337 12.6768 10.9337C14.1244 10.3209 15.3875 10.2852 15.8484 10.9515C16.0956 11.3085 16.072 11.8062 15.8445 12.3833C15.7414 12.6468 15.8756 12.688 16.0729 12.7486ZM18.7878 8.40782C17.8132 7.3912 16.3757 7.00418 15.0489 7.26989C14.7417 7.33151 14.5472 7.61647 14.6127 7.90336C14.6783 8.19217 14.9793 8.37509 15.2864 8.31347C16.2304 8.12478 17.2521 8.40012 17.9442 9.12215C18.6363 9.84419 18.8247 10.8281 18.5278 11.6907C18.4315 11.9718 18.5954 12.2721 18.8943 12.3626C19.1933 12.4531 19.5127 12.2991 19.6089 12.0199V12.018C20.0266 10.8069 19.7625 9.42252 18.7878 8.40782ZM15.4017 9.23086C16.0706 9.09362 16.7969 9.2914 17.2895 9.81007C17.7822 10.3287 17.9139 11.0351 17.7036 11.6547C17.6166 11.909 17.332 12.0462 17.0644 11.9655C16.7969 11.8827 16.6525 11.6103 16.7374 11.358C16.8415 11.0553 16.7756 10.7102 16.5357 10.4559C16.2957 10.2036 15.9389 10.1067 15.6119 10.1733C15.3401 10.2298 15.0704 10.0644 15.011 9.80402C14.9536 9.54367 15.1277 9.28535 15.4017 9.23086Z" fill="white" fill-opacity="0.3"/>
<path fill-rule="evenodd" clip-rule="evenodd" d="M6.83382 15.5344C6.98681 17.0951 9.01883 18.1719 11.3725 17.9359C13.7242 17.7019 15.5091 16.2444 15.3542 14.6817C15.2031 13.1211 13.1711 12.0443 10.8174 12.2802C8.46571 12.5162 6.68083 13.9718 6.83382 15.5344ZM8.8075 14.9413C9.32549 13.9386 10.6727 13.3704 11.8653 13.6674C13.0997 13.9724 13.7305 15.0828 13.225 16.1632C12.7133 17.2656 11.2429 17.8557 9.99386 17.4709C8.79079 17.1001 8.27907 15.9639 8.8075 14.9413Z" fill="white" fill-opacity="0.3"/>
<path d="M11.7546 15.302C11.6669 15.4455 11.4726 15.5133 11.3222 15.4535C11.1719 15.3956 11.1259 15.2342 11.2115 15.0946C11.2993 14.9551 11.4852 14.8873 11.6335 14.9431C11.7838 14.995 11.8381 15.1564 11.7546 15.302Z" fill="white" fill-opacity="0.3"/>
<path d="M10.9546 16.2788C10.7124 16.6476 10.1923 16.809 9.80171 16.6396C9.41739 16.4721 9.30252 16.0436 9.5448 15.6827C9.785 15.3239 10.2863 15.1644 10.6748 15.3199C11.0674 15.4814 11.1928 15.906 10.9546 16.2788Z" fill="white" fill-opacity="0.3"/>
</svg>
