<?xml version="1.0" standalone="no"?>
<!DOCTYPE svg PUBLIC "-//W3C//DTD SVG 20010904//EN"
 "http://www.w3.org/TR/2001/REC-SVG-20010904/DTD/svg10.dtd">
<svg version="1.0" xmlns="http://www.w3.org/2000/svg"
 width="520.000000pt" height="520.000000pt" viewBox="0 0 520.000000 520.000000"
 preserveAspectRatio="xMidYMid meet">
<metadata>
Created by potrace 1.14, written by Peter Selinger 2001-2017
</metadata>
<g transform="translate(0.000000,520.000000) scale(0.100000,-0.100000)"
fill="#000000" stroke="none">
<path d="M1890 5153 c0 -4 -14 -24 -31 -43 -78 -89 -104 -118 -138 -159 -20
-25 -49 -57 -65 -73 -16 -15 -26 -28 -22 -28 3 0 -2 -8 -11 -18 -10 -10 -43
-46 -73 -81 -30 -35 -64 -74 -75 -87 -11 -13 -37 -42 -57 -66 -36 -42 -181
-211 -202 -235 -6 -7 -15 -18 -21 -25 -10 -14 -115 -136 -191 -223 -24 -27
-51 -60 -61 -71 -64 -77 -110 -131 -125 -146 -10 -10 -18 -20 -18 -23 0 -3
-15 -21 -34 -40 -19 -18 -40 -42 -47 -53 -12 -17 -47 -58 -134 -157 -11 -12
-36 -42 -56 -66 -21 -24 -48 -56 -60 -70 -13 -14 -43 -49 -67 -77 -78 -92 -97
-114 -119 -138 -13 -13 -23 -26 -23 -30 0 -4 -8 -14 -17 -23 -10 -9 -45 -47
-78 -86 -86 -101 -97 -113 -131 -150 -30 -32 -30 -35 -18 -71 7 -20 16 -40 21
-43 4 -3 10 -15 11 -26 2 -11 7 -22 12 -25 4 -3 10 -15 14 -27 4 -13 12 -23
17 -23 6 0 7 -5 3 -11 -3 -6 -3 -14 2 -18 12 -8 114 -214 114 -229 0 -7 5 -12
10 -12 6 0 10 -4 10 -10 0 -13 384 -784 393 -788 4 -2 7 -8 7 -13 0 -10 36
-94 50 -119 26 -44 150 -299 150 -309 0 -6 4 -11 9 -11 7 0 54 -99 51 -109 -1
-2 2 -7 7 -10 4 -3 16 -21 27 -40 10 -19 26 -42 35 -51 9 -10 35 -39 59 -66
58 -67 61 -71 123 -143 29 -36 65 -76 79 -91 14 -14 39 -43 55 -64 17 -21 41
-50 55 -65 14 -15 45 -50 68 -78 24 -29 51 -54 60 -57 24 -7 70 -16 117 -22
22 -3 45 -10 52 -16 7 -6 13 -8 13 -6 0 3 21 1 48 -4 47 -9 73 -14 115 -22 95
-19 195 -40 207 -44 8 -3 22 -6 30 -7 13 -2 56 -10 150 -31 14 -3 36 -7 50
-10 14 -2 36 -7 50 -11 14 -3 27 -7 30 -8 3 0 28 -5 55 -10 28 -4 55 -9 60
-11 23 -5 76 -16 135 -28 26 -5 38 -8 130 -28 30 -6 64 -13 75 -14 11 -2 63
-13 115 -24 52 -11 106 -23 120 -25 14 -3 45 -10 70 -15 25 -6 56 -12 70 -14
14 -3 26 -5 28 -7 3 -2 10 -4 67 -14 28 -4 57 -10 65 -12 8 -2 24 -5 36 -7 11
-2 26 -6 32 -10 12 -7 25 4 92 84 25 29 50 58 55 64 10 11 92 109 130 155 11
13 27 32 35 40 8 9 39 47 69 84 30 37 58 67 63 67 4 0 8 6 8 14 0 8 8 21 18
28 9 7 34 34 55 60 21 26 43 53 50 60 7 7 44 51 82 98 38 47 78 94 88 105 11
11 31 36 46 55 14 19 35 44 46 56 11 11 36 41 57 65 20 24 44 54 55 65 10 12
36 44 58 70 67 80 100 119 105 124 5 4 82 98 103 125 4 6 24 28 44 50 19 22
47 55 62 74 14 19 39 49 54 65 16 17 41 47 55 66 15 19 37 45 49 57 13 12 23
27 23 33 0 5 3 10 8 10 4 0 29 28 57 63 27 34 54 67 60 73 17 18 91 106 134
158 33 41 39 54 34 80 -3 17 -9 33 -12 36 -6 5 -9 15 -14 50 -2 11 -6 23 -10
26 -4 4 -7 17 -7 29 0 12 -3 25 -7 29 -4 3 -8 17 -10 29 -2 12 -9 38 -15 57
-7 19 -13 37 -13 40 -1 3 -9 32 -19 65 -10 33 -19 65 -20 70 -1 6 -5 16 -10
23 -4 7 -5 16 -2 19 3 3 -1 17 -8 32 -7 14 -20 53 -29 86 -19 72 -106 374
-114 395 -3 8 -8 24 -10 35 -6 28 -9 38 -16 55 -7 18 -53 174 -73 250 -8 30
-17 62 -21 70 -3 8 -8 26 -10 40 -2 13 -9 30 -14 36 -5 7 -9 16 -7 20 1 5 -5
32 -15 59 -9 28 -18 62 -21 77 -3 15 -8 33 -13 40 -4 7 -8 18 -9 23 -1 6 -9
33 -17 62 -8 28 -13 54 -10 57 4 3 2 6 -4 6 -5 0 -10 6 -10 13 -1 22 -28 112
-41 135 -7 12 -21 22 -31 22 -10 0 -21 3 -25 7 -3 4 -12 8 -19 9 -7 1 -61 20
-122 42 -60 22 -141 51 -180 64 -38 13 -72 25 -75 28 -3 3 -9 6 -15 7 -5 1
-55 18 -110 38 -55 20 -109 39 -120 41 -11 3 -29 10 -40 14 -11 5 -49 19 -85
31 -36 12 -69 26 -74 31 -6 4 -17 8 -24 8 -13 0 -153 48 -207 71 -11 5 -42 16
-70 25 -27 9 -61 21 -75 27 -14 5 -29 11 -35 12 -5 0 -17 4 -25 7 -8 4 -49 18
-90 33 -41 15 -88 32 -105 38 -16 7 -32 12 -35 13 -3 0 -14 4 -25 8 -11 4 -31
12 -45 16 -14 4 -34 11 -45 16 -11 4 -24 8 -30 10 -27 7 -141 50 -145 54 -3 3
-13 6 -24 8 -10 2 -30 8 -45 14 -14 6 -29 12 -33 13 -5 2 -10 4 -13 5 -3 1 -8
3 -12 4 -7 1 -50 17 -123 44 -8 3 -17 6 -20 7 -3 1 -12 4 -20 8 -8 3 -35 13
-60 21 -25 8 -76 27 -115 41 -38 14 -75 27 -82 29 -7 1 -16 5 -19 9 -4 4 -17
7 -29 7 -12 0 -25 3 -29 7 -6 7 -67 31 -96 38 -8 2 -16 4 -17 5 -2 2 -6 3 -10
5 -5 1 -19 6 -33 12 -46 19 -70 24 -70 16z"/>
</g>
</svg>
